<svg width="66" height="42" viewBox="0 0 66 42" fill="none" xmlns="http://www.w3.org/2000/svg">
<g id="CBS_News 1" clip-path="url(#clip0_1974_14576)">
<g id="Group">
<path id="Vector" d="M0.895264 22.1642H6.36926L14.0903 34.9256H14.1381V22.5364H12.0038V22.1642H16.6446V22.5364H14.5104V41.2536H13.882L3.44607 24.0665H3.40176V40.8777H5.53269V41.2536H0.895264V40.8777H3.0295V22.5364H0.895264V22.1642Z" fill="black"/>
<path id="Vector_2" d="M16.2959 22.1642H30.1639V26.7503H29.8634C29.539 25.5688 28.5418 22.5397 25.4786 22.5397H21.7905V30.8242H23.0882C25.359 30.8242 26.1479 29.2435 26.5884 26.8291H26.8924V35.1681H26.5884C26.1719 33.0782 25.4786 31.2 23.3443 31.2H21.7905V40.8777H25.5948C28.4461 40.8777 30.1877 38.4909 30.8127 35.3799H31.1132V41.2536H16.2925V40.8777H18.4268V22.5364H16.2959V22.1642Z" fill="black"/>
<path id="Vector_3" d="M30.0479 22.1642H37.1679V22.5364H35.4742L39.6473 36.6671H39.6948L42.1299 28.6764L40.3233 22.5364H39.0701V22.1642H46.0023V22.5364H43.8474L48.0445 36.6945H48.0921L52.3812 22.5364H50.3869V22.1642H54.6555V22.5364H52.7775L46.815 42.0046H46.1423L42.338 29.2945H42.2903L38.3974 42.0046H37.7245L31.9706 22.5364H30.0479V22.1642Z" fill="black"/>
<path id="Vector_4" d="M20.394 9.83904C20.394 15.2892 16.0742 19.7182 10.549 19.7182C5.05098 19.7182 0.68335 15.2857 0.68335 9.83904C0.68335 4.43661 5.05435 0.00402832 10.5491 0.00402832C16.0742 0.00402832 20.394 4.43661 20.394 9.83904ZM1.37997 9.83904C2.77334 12.7314 6.03796 15.5486 10.5491 15.5486C15.0396 15.5486 18.3281 12.728 19.7214 9.83904C18.3281 6.99442 15.0396 4.17362 10.5491 4.17362C6.03796 4.17362 2.77334 6.99442 1.37997 9.83904ZM15.5655 9.83554C15.5655 12.6049 13.3286 14.811 10.549 14.811C7.76569 14.811 5.50849 12.6049 5.50849 9.83554C5.50849 7.11044 7.76569 4.88393 10.549 4.88393C13.3287 4.88393 15.5655 7.11044 15.5655 9.83554Z" fill="black"/>
<path id="Vector_5" d="M10.5521 19.6803C5.13269 19.6803 0.724121 15.2648 0.724121 9.83864C0.724121 4.43621 5.13263 0.0411377 10.5521 0.0411377C15.958 0.0411377 20.3597 4.43615 20.3597 9.83864C20.3562 15.357 16.0501 19.6803 10.5521 19.6803ZM10.5521 4.13572C5.81231 4.13572 2.63301 7.19881 1.34911 9.82152C2.62289 12.4989 5.79862 15.5858 10.5521 15.5858C15.3091 15.5858 18.485 12.4989 19.7587 9.85565C18.4747 7.19881 15.292 4.13572 10.5521 4.13572ZM10.5488 14.7731C7.78959 14.7731 5.54582 12.5569 5.54582 9.83514C5.54582 7.12367 7.78953 4.92111 10.5488 4.92111C13.2943 4.92111 15.531 7.12711 15.531 9.83514C15.5275 12.5569 13.2943 14.7731 10.5488 14.7731Z" fill="black"/>
<path id="Vector_6" d="M29.6175 0.259888C28.0297 0.259888 26.0319 1.3152 24.5294 2.95079C23.2179 4.38166 21.6541 6.88478 21.6541 10.689C21.6541 15.6099 25.6767 19.4243 29.136 19.4243C30.5293 19.4243 31.3523 19.0519 32.0763 18.7208L32.0933 18.714C32.6602 18.4579 33.152 18.236 33.8179 18.236C34.3816 18.236 34.9141 18.5535 35.2386 19.0829L35.382 19.3185V11.7886H35.1736L35.1599 11.8568C34.7024 14.7527 32.8002 19.0656 29.4366 19.0656C26.1036 19.0656 25.4206 15.7976 25.4206 10.8939C25.4206 6.10952 25.9227 0.61501 29.8293 0.61501C33.309 0.61501 34.7977 5.74752 35.1735 7.31841L35.1871 7.37642H35.3919V0.519433L35.2519 0.724213C34.914 1.21261 34.4358 1.31169 33.777 1.31169C33.3363 1.31169 32.8719 1.12729 32.3393 0.915498L32.3153 0.905311C31.5674 0.604887 30.7239 0.259888 29.6175 0.259888Z" fill="black"/>
<path id="Vector_7" d="M47.5799 9.18074C48.7034 8.86663 51.3599 7.98203 51.3599 5.11354C51.3599 3.70674 50.6669 2.52172 49.3623 1.68845C48.1671 0.920131 46.4974 0.500122 44.6635 0.500122H36.1843V0.868935H39.1314V18.821H36.1843V19.1932H45.073C49.2563 19.1932 52.0669 16.9975 52.0669 13.7328C52.0669 11.4926 50.5986 10.0036 47.5799 9.18074ZM45.3258 8.99277H42.9047V0.868741H43.6357C46.9106 0.868741 47.9317 1.47997 47.9317 4.77204C47.9317 8.29965 47.054 8.94507 45.3292 8.94507M42.9047 9.36164H44.9163C46.7295 9.36164 48.502 9.76115 48.502 13.8899C48.502 18.039 47.3681 18.8177 44.8239 18.8177H42.9047V9.36164Z" fill="black"/>
<path id="Vector_8" d="M55.1403 18.3202C55.7379 18.3202 56.2535 18.5183 56.8511 18.7471L56.9025 18.7676C57.7048 19.0784 58.6066 19.4267 59.9622 19.4267C62.503 19.4267 65.5694 16.6606 65.5694 13.2287C65.5694 9.62586 62.8785 8.73127 60.2764 7.86393C58.0156 7.10924 55.8847 6.39893 55.8847 3.90593C55.8847 2.91901 56.1821 0.620935 58.9173 0.620935C62.2875 0.620935 63.8859 5.94466 63.8859 7.25945V7.33803H64.1044L64.1113 0.34426L63.9675 0.532041C63.5647 1.06813 62.759 1.10914 62.5199 1.10914C62.4959 1.10914 62.4755 1.10914 62.4582 1.10914H62.4345C62.1307 1.10914 61.6492 0.945237 61.263 0.801838C60.6213 0.562732 59.8223 0.265747 58.9172 0.265747C55.7788 0.265747 53.8356 3.40053 53.8356 6.30666C53.8356 9.84777 56.5095 10.8109 59.0981 11.7432C61.2905 12.5285 63.3634 13.2697 63.3634 15.6088C63.3634 17.9855 61.5738 19.051 59.7984 19.051C55.4717 19.051 53.8903 12.4398 53.8903 11.8831V11.8422H53.6755V19.1365L53.812 18.9761C54.3174 18.3681 54.6965 18.3202 55.1403 18.3202Z" fill="black"/>
<path id="Vector_9" d="M55.0516 40.4557C55.6558 40.4557 56.175 40.6604 56.776 40.8925L56.8274 40.9132C57.6368 41.2307 58.5452 41.5929 59.9145 41.5929C62.4756 41.5929 65.5693 38.7516 65.5693 35.2239C65.5693 31.5223 62.8545 30.6002 60.2284 29.7122C57.9507 28.9372 55.7992 28.2065 55.7992 25.6453C55.7992 24.6312 56.0966 22.2681 58.8558 22.2681C62.2567 22.2681 63.8688 27.7386 63.8688 29.0872V29.1693H64.0873L64.0942 21.9846L63.9508 22.1757C63.5443 22.7256 62.7316 22.7696 62.4888 22.7696C62.4618 22.7696 62.4415 22.7696 62.4274 22.7696H62.4001C62.093 22.7696 61.6081 22.6025 61.2189 22.4521C60.5699 22.2063 59.7676 21.9025 58.8521 21.9025C55.6863 21.9025 53.7265 25.1226 53.7265 28.1073C53.7265 31.7444 56.424 32.7345 59.0332 33.6906C61.2463 34.4966 63.3325 35.2613 63.3325 37.662C63.3325 40.1038 61.526 41.2 59.7402 41.2C55.3759 41.2 53.7808 34.4075 53.7808 33.8373V33.7965H53.5627V41.2887L53.6992 41.1213C54.2185 40.5067 54.604 40.4557 55.0516 40.4557Z" fill="black"/>
</g>
</g>
<defs>
<clipPath id="clip0_1974_14576">
<rect width="64.8863" height="41.9997" fill="white" transform="translate(0.683594 0.00012207)"/>
</clipPath>
</defs>
</svg>
