<svg width="178" height="38" viewBox="0 0 178 38" fill="none" xmlns="http://www.w3.org/2000/svg">
<path d="M20.8898 26.04V13.0943H29.4665V15.3282H23.5992V18.4323H29.1345V20.5495H23.5992V23.8062H29.4665V26.04H20.8898ZM35.6476 26.2374C33.2254 26.2374 31.7361 24.3534 31.7361 21.2314V21.2224C31.7361 18.0914 33.2254 16.2253 35.6476 16.2253C37.0113 16.2253 38.0878 16.9251 38.6082 18.0914H38.662V13.0943H41.2817V26.04H38.662V24.3983H38.6082C38.0968 25.5376 37.0382 26.2374 35.6476 26.2374ZM36.5268 24.0663C37.8008 24.0663 38.671 22.9718 38.671 21.2314V21.2224C38.671 19.4909 37.7918 18.3964 36.5268 18.3964C35.226 18.3964 34.4006 19.464 34.4006 21.2224V21.2314C34.4006 22.9808 35.217 24.0663 36.5268 24.0663ZM45.2828 15.1846C44.4933 15.1846 43.8833 14.5656 43.8833 13.821C43.8833 13.0764 44.4933 12.4573 45.2828 12.4573C46.0723 12.4573 46.6823 13.0764 46.6823 13.821C46.6823 14.5656 46.0723 15.1846 45.2828 15.1846ZM43.973 26.04V16.4227H46.5926V26.04H43.973ZM53.0609 26.2374C50.9257 26.2374 49.9209 25.412 49.9209 23.3486V18.3964H48.5841V16.4227H49.9209V14.0722H52.5674V16.4227H54.3258V18.3964H52.5674V23.0615C52.5674 23.9587 52.9712 24.2637 53.7606 24.2637C53.9939 24.2637 54.1644 24.2368 54.3258 24.2188V26.1387C54.0298 26.1836 53.6081 26.2374 53.0609 26.2374ZM60.9287 26.2374C58.004 26.2374 56.1649 24.3624 56.1649 21.2314V21.2134C56.1649 18.1183 58.0488 16.2253 60.9197 16.2253C63.7995 16.2253 65.6925 18.1004 65.6925 21.2134V21.2314C65.6925 24.3714 63.8354 26.2374 60.9287 26.2374ZM60.9376 24.183C62.2116 24.183 63.028 23.1064 63.028 21.2314V21.2134C63.028 19.3563 62.1936 18.2798 60.9197 18.2798C59.6547 18.2798 58.8294 19.3563 58.8294 21.2134V21.2314C58.8294 23.1154 59.6458 24.183 60.9376 24.183ZM67.9352 26.04V16.4227H70.5549V18.1004H70.6087C70.8958 16.9161 71.6763 16.2253 72.7977 16.2253C73.0848 16.2253 73.3539 16.2702 73.5513 16.324V18.6297C73.336 18.54 72.9771 18.4861 72.6003 18.4861C71.3085 18.4861 70.5549 19.2577 70.5549 20.6572V26.04H67.9352ZM75.6774 18.0555L76.3233 13.0943H78.7994L77.4896 18.0555H75.6774ZM83.931 26.2374C81.2665 26.2374 79.7862 25.0083 79.5798 23.1871L79.5709 23.1064H82.1277L82.1457 23.1871C82.3161 23.9407 82.8813 24.3803 83.931 24.3803C84.9178 24.3803 85.5189 23.9946 85.5189 23.3755V23.3666C85.5189 22.8552 85.1959 22.5591 84.2539 22.3528L82.6211 22.0119C80.7551 21.6171 79.8131 20.6841 79.8131 19.2487V19.2397C79.8131 17.4096 81.3921 16.2253 83.8413 16.2253C86.3981 16.2253 87.8246 17.58 87.8874 19.2666V19.3563H85.474L85.4651 19.2846C85.3754 18.5938 84.8102 18.0734 83.8413 18.0734C82.9351 18.0734 82.3699 18.4772 82.3699 19.0962V19.1051C82.3699 19.5986 82.7019 19.9215 83.6708 20.1279L85.3036 20.4778C87.3132 20.8994 88.1386 21.6889 88.1386 23.1064V23.1154C88.1386 24.9994 86.4071 26.2374 83.931 26.2374ZM100.833 26.2643C97.0469 26.2643 94.6695 23.7344 94.6695 19.5627V19.5537C94.6695 15.382 97.0559 12.87 100.833 12.87C103.973 12.87 106.225 14.8527 106.476 17.598L106.485 17.6787H103.847L103.811 17.5262C103.506 16.0997 102.448 15.1667 100.833 15.1667C98.7604 15.1667 97.4327 16.8354 97.4327 19.5447V19.5537C97.4327 22.281 98.7604 23.9676 100.833 23.9676C102.394 23.9676 103.488 23.0705 103.838 21.5364L103.856 21.4467H106.494L106.485 21.5454C106.234 24.2996 103.964 26.2643 100.833 26.2643ZM108.898 26.04V13.0943H111.518V18.0824H111.571C112.065 16.8892 113.079 16.2253 114.523 16.2253C116.604 16.2253 117.896 17.6787 117.896 20.0023V26.04H115.277V20.5406C115.277 19.1949 114.613 18.3964 113.42 18.3964C112.262 18.3964 111.518 19.2756 111.518 20.5316V26.04H108.898ZM124.885 26.2374C121.96 26.2374 120.121 24.3624 120.121 21.2314V21.2134C120.121 18.1183 122.005 16.2253 124.876 16.2253C127.756 16.2253 129.649 18.1004 129.649 21.2134V21.2314C129.649 24.3714 127.792 26.2374 124.885 26.2374ZM124.894 24.183C126.168 24.183 126.984 23.1064 126.984 21.2314V21.2134C126.984 19.3563 126.15 18.2798 124.876 18.2798C123.611 18.2798 122.786 19.3563 122.786 21.2134V21.2314C122.786 23.1154 123.602 24.183 124.894 24.183ZM133.255 15.1846C132.466 15.1846 131.856 14.5656 131.856 13.821C131.856 13.0764 132.466 12.4573 133.255 12.4573C134.045 12.4573 134.655 13.0764 134.655 13.821C134.655 14.5656 134.045 15.1846 133.255 15.1846ZM131.945 26.04V16.4227H134.565V26.04H131.945ZM141.607 26.2374C138.674 26.2374 136.861 24.3265 136.861 21.2224V21.2134C136.861 18.1362 138.701 16.2253 141.58 16.2253C144.191 16.2253 145.851 17.8312 145.95 19.9126V19.9754H143.518L143.5 19.8946C143.339 18.9795 142.702 18.2798 141.616 18.2798C140.333 18.2798 139.526 19.3833 139.526 21.2224V21.2314C139.526 23.1154 140.333 24.183 141.625 24.183C142.675 24.183 143.33 23.537 143.509 22.5681L143.518 22.4874H145.958V22.5412C145.833 24.6405 144.173 26.2374 141.607 26.2374ZM152.49 26.2374C149.547 26.2374 147.762 24.3265 147.762 21.2493V21.2403C147.762 18.1811 149.565 16.2253 152.382 16.2253C155.199 16.2253 156.966 18.1362 156.966 21.043V21.8504H150.345C150.372 23.3845 151.207 24.2816 152.543 24.2816C153.62 24.2816 154.275 23.6895 154.463 23.1512L154.481 23.0974H156.886L156.859 23.1961C156.563 24.6136 155.235 26.2374 152.49 26.2374ZM152.427 18.1811C151.35 18.1811 150.543 18.8988 150.372 20.1997H154.454C154.293 18.8719 153.512 18.1811 152.427 18.1811Z" fill="black"/>
<path d="M167.24 2.7069C167.652 3.54289 168.382 3.98079 169.191 4.29926C169.284 4.35234 169.377 4.43196 169.417 4.51158C169.722 5.18833 170.014 5.89162 170.306 6.55511C170.412 6.80723 170.492 7.04609 170.611 7.35129C170.266 6.91339 169.961 6.54184 169.656 6.18356C169.098 5.53334 168.435 5.04236 167.546 4.90967C166.643 4.7637 165.741 4.84332 164.852 5.0689C164.825 5.09544 164.812 5.09544 164.759 5.12198C164.985 5.45372 165.184 5.79874 165.396 6.10394C165.86 6.70108 166.418 7.19205 167.161 7.45745C168.222 7.78919 169.311 7.86881 170.399 7.6963C170.505 7.65649 170.598 7.64322 170.704 7.61668C171.261 9.19578 171.673 10.7483 171.964 12.354C171.752 12.0488 171.566 11.7038 171.381 11.3985C170.916 10.6156 170.332 9.99196 169.443 9.68676C168.766 9.4479 168.063 9.34174 167.36 9.34174C167.134 9.34174 166.895 9.36828 166.617 9.36828C166.749 9.68676 166.842 9.96542 166.949 10.2308C167.294 10.9606 167.718 11.5976 168.408 12.0222C169.231 12.5663 170.16 12.8317 171.128 12.9246C171.434 12.9511 171.765 12.9776 172.084 13.0042C172.363 14.6098 172.522 16.242 172.562 17.9007C172.509 17.8476 172.495 17.768 172.469 17.6884C172.363 17.3832 172.243 17.0647 172.124 16.733C171.752 15.7775 171.128 15.0477 170.186 14.6098C169.536 14.3179 168.846 14.1454 168.143 14.0392C168.023 14.0392 167.904 14.0127 167.771 13.9861C167.771 14.0658 167.771 14.0923 167.771 14.1454C167.798 14.2913 167.824 14.4771 167.864 14.6629C168.09 15.6183 168.461 16.5339 169.284 17.1576C170.147 17.8609 171.155 18.2988 172.256 18.5376C172.363 18.5509 172.469 18.5509 172.601 18.5775C172.628 20.2627 172.495 21.9214 172.203 23.5801C172.084 23.0361 171.991 22.5186 171.885 22.001C171.712 21.2712 171.354 20.621 170.783 20.13C170.067 19.5329 169.231 19.1481 168.355 18.8296C168.262 18.8296 168.169 18.7765 168.023 18.75C168.037 19.2277 168.05 19.639 168.103 20.0504C168.196 20.8068 168.408 21.4968 168.899 22.0674C169.735 23.0228 170.744 23.7526 171.951 24.164C171.991 24.164 172.031 24.1905 172.084 24.2171C171.779 25.7564 171.367 27.2558 170.81 28.7022C170.783 28.4368 170.81 28.1847 170.797 27.9193C170.783 27.0435 170.638 26.2208 170.093 25.5175C169.642 24.9469 169.111 24.4825 168.501 24.1242C168.183 23.9119 167.864 23.7261 167.506 23.5536C167.466 23.6996 167.453 23.8323 167.426 23.9384C167.24 25.0265 167.24 26.0881 167.798 27.0701C168.262 27.8795 168.899 28.5563 169.642 29.1269C169.921 29.3392 170.2 29.5117 170.492 29.6975C169.947 31.0908 169.324 32.4443 168.581 33.7314C168.581 33.6518 168.581 33.5988 168.594 33.5457C168.634 33.1874 168.687 32.7893 168.727 32.431C168.78 31.7543 168.647 31.104 168.329 30.5069C167.944 29.8169 167.426 29.2198 166.816 28.7022C166.59 28.5297 166.365 28.344 166.126 28.1316C165.794 28.9145 165.608 29.6709 165.582 30.4406C165.582 30.8785 165.608 31.3164 165.781 31.741C166.232 32.8822 166.922 33.8907 167.877 34.7267C167.984 34.8063 167.97 34.8594 167.917 34.9655C167.294 35.9873 166.617 36.9693 165.887 37.9379C165.887 37.9379 166.02 38.2033 166.909 37.6327C167.121 37.3275 167.333 37.0356 167.532 36.7039C167.944 36.0536 168.355 35.4034 168.74 34.7399C168.82 34.5674 168.899 34.5144 169.085 34.5674C170.253 34.8328 171.434 34.8328 172.588 34.5144C173.411 34.302 174.074 33.7845 174.618 33.1609C174.857 32.8822 175.07 32.5372 175.295 32.2585C175.308 32.2054 175.335 32.1789 175.362 32.1258C175.322 32.0993 175.295 32.0727 175.282 32.0727C174.353 31.7675 173.398 31.6083 172.429 31.6879C171.46 31.741 170.677 32.2054 169.987 32.8822C169.828 33.0414 169.682 33.1874 169.496 33.3201C169.51 33.267 169.536 33.2139 169.563 33.1609C170.173 31.94 170.717 30.6661 171.182 29.379C171.221 29.2463 171.274 29.2197 171.407 29.2197C172.562 29.2994 173.69 29.0871 174.751 28.6226C175.574 28.2643 176.144 27.6407 176.582 26.8843C176.795 26.5525 176.954 26.1677 177.153 25.7564C176.768 25.7564 176.423 25.7033 176.078 25.7033C175.415 25.6767 174.751 25.7298 174.101 25.9023C173.212 26.1677 172.588 26.7118 172.057 27.4283C171.925 27.5876 171.819 27.7468 171.712 27.906C172.044 26.4862 172.376 25.0531 172.708 23.6332C173.238 23.5005 173.809 23.3944 174.34 23.2218C175.162 22.9432 175.932 22.5451 176.543 21.8949C177.073 21.3243 177.617 20.0769 177.684 19.3073C177.67 19.3073 177.67 19.3073 177.657 19.3073C176.516 19.3206 175.415 19.5329 174.419 20.1565C173.809 20.5148 173.424 21.112 173.106 21.7356C173.026 21.8683 172.96 22.001 172.867 22.147C173 20.7271 173.053 19.3206 172.946 17.9007C173.663 17.6884 174.313 17.4097 174.91 17.0249C175.786 16.4543 176.543 15.7775 176.861 14.7425C177.034 14.1985 177.14 13.6279 177.153 13.0573C177.166 13.0042 177.153 12.9511 177.153 12.8184C176.649 13.0042 176.158 13.1369 175.693 13.2828C175.056 13.5482 174.472 13.88 173.981 14.3975C173.557 14.8487 173.331 15.3927 173.145 15.9501C173.066 16.2154 173 16.4808 172.893 16.733C172.893 16.6533 172.88 16.6268 172.88 16.5472C172.761 15.1804 172.575 13.8269 172.296 12.4867C172.27 12.354 172.283 12.2478 172.442 12.1947C173.517 11.6772 174.393 10.9208 175.056 9.91234C175.521 9.20905 175.627 8.4394 175.614 7.60341C175.614 7.29821 175.574 7.00628 175.534 6.648C175.136 6.86031 174.751 7.01955 174.419 7.21859C173.676 7.64322 173.026 8.16074 172.601 8.90384C172.27 9.47444 172.19 10.1247 172.137 10.7749C172.11 10.9739 172.11 11.1862 172.057 11.372C172.044 11.3189 172.031 11.2659 172.018 11.2128C171.673 9.84599 171.261 8.46594 170.73 7.13897C170.677 7.00628 170.677 6.92666 170.797 6.86031C171.712 6.2101 172.402 5.38737 172.907 4.36561C173.305 3.55616 173.305 2.73344 173.132 1.89744C173.079 1.59224 173 1.31358 172.92 1.00837L172.893 0.981836C172.309 1.34012 171.765 1.75148 171.301 2.269C170.584 3.02537 170.2 3.90117 170.279 4.98928C170.306 5.37411 170.346 5.79874 170.372 6.26318C170.346 6.2101 170.332 6.18356 170.319 6.13048C170.027 5.53334 169.735 4.9362 169.443 4.3258C169.417 4.24618 169.417 4.16656 169.417 4.08694C169.443 3.54289 169.43 2.99883 169.284 2.45477C169.178 2.04341 169.019 1.61878 168.713 1.31358C168.355 0.928756 167.93 0.636824 167.479 0.3847C167.24 0.225463 167.002 0.119305 166.749 -0.00012207C166.71 -0.00012207 166.683 0.026417 166.643 0.026417C166.657 0.225462 166.696 0.411239 166.71 0.610284C166.736 1.34012 166.909 2.06995 167.24 2.7069Z" fill="black"/>
<path d="M10.8623 2.7069C10.451 3.54289 9.72112 3.98079 8.91167 4.29926C8.81878 4.35234 8.7259 4.43196 8.68609 4.51158C8.38088 5.18833 8.08895 5.89162 7.79702 6.55511C7.69086 6.80723 7.61124 7.04609 7.49182 7.35129C7.83683 6.91339 8.14203 6.54184 8.44723 6.18356C9.00456 5.53334 9.66804 5.04236 10.5571 4.90967C11.4595 4.7637 12.3618 4.84332 13.2509 5.0689C13.2774 5.09544 13.2907 5.09544 13.3438 5.12198C13.1182 5.45372 12.9191 5.79874 12.7068 6.10394C12.2424 6.70108 11.685 7.19205 10.9419 7.45745C9.88036 7.78919 8.79224 7.86881 7.70413 7.6963C7.59797 7.65649 7.50509 7.64322 7.39893 7.61668C6.8416 9.19578 6.43024 10.7483 6.1383 12.354C6.35062 12.0488 6.5364 11.7038 6.72217 11.3985C7.18661 10.6156 7.77048 9.99196 8.65955 9.68676C9.3363 9.4479 10.0396 9.34174 10.7429 9.34174C10.9685 9.34174 11.2073 9.36828 11.486 9.36828C11.3533 9.68676 11.2604 9.96542 11.1542 10.2308C10.8092 10.9606 10.3846 11.5976 9.69458 12.0222C8.87186 12.5663 7.94299 12.8317 6.9743 12.9246C6.66909 12.9511 6.33735 12.9776 6.01888 13.0042C5.74022 14.6098 5.58098 16.242 5.54117 17.9007C5.59425 17.8476 5.60752 17.768 5.63406 17.6884C5.74022 17.3832 5.85964 17.0647 5.97907 16.733C6.35062 15.7775 6.9743 15.0477 7.91644 14.6098C8.56666 14.3179 9.25668 14.1454 9.95998 14.0392C10.0794 14.0392 10.1988 14.0127 10.3315 13.9861C10.3315 14.0658 10.3315 14.0923 10.3315 14.1454C10.305 14.2913 10.2784 14.4771 10.2386 14.6629C10.0131 15.6183 9.6415 16.5339 8.81878 17.1576C7.95625 17.8609 6.94776 18.2988 5.84637 18.5376C5.74022 18.5509 5.63406 18.5509 5.50136 18.5775C5.47482 20.2627 5.60752 21.9214 5.89945 23.5801C6.01888 23.0361 6.11177 22.5186 6.21792 22.001C6.39043 21.2712 6.74871 20.621 7.31931 20.13C8.03587 19.5329 8.87186 19.1481 9.74766 18.8296C9.84055 18.8296 9.93344 18.7765 10.0794 18.75C10.0661 19.2277 10.0529 19.639 9.99979 20.0504C9.9069 20.8068 9.69458 21.4968 9.20361 22.0674C8.36761 23.0228 7.35911 23.7526 6.15157 24.164C6.11176 24.164 6.07196 24.1905 6.01888 24.2171C6.32408 25.7564 6.73545 27.2558 7.29277 28.7022C7.31931 28.4368 7.29277 28.1847 7.30604 27.9193C7.31931 27.0435 7.46527 26.2208 8.00933 25.5175C8.4605 24.9469 8.99129 24.4825 9.6017 24.1242C9.92017 23.9119 10.2386 23.7261 10.5969 23.5536C10.6367 23.6996 10.65 23.8323 10.6765 23.9384C10.8623 25.0265 10.8623 26.0881 10.305 27.0701C9.84055 27.8795 9.20361 28.5563 8.4605 29.1269C8.18184 29.3392 7.90317 29.5117 7.61124 29.6975C8.1553 31.0908 8.77897 32.4443 9.52208 33.7314C9.52208 33.6518 9.52208 33.5988 9.50881 33.5457C9.469 33.1874 9.41592 32.7893 9.37611 32.431C9.32303 31.7543 9.45573 31.104 9.7742 30.5069C10.159 29.8169 10.6765 29.2198 11.2869 28.7022C11.5125 28.5297 11.7381 28.344 11.977 28.1316C12.3087 28.9145 12.4945 29.6709 12.521 30.4406C12.521 30.8785 12.4945 31.3164 12.322 31.741C11.8708 32.8822 11.1808 33.8907 10.2254 34.7267C10.1192 34.8063 10.1325 34.8594 10.1856 34.9655C10.8092 35.9873 11.486 36.9693 12.2158 37.9379C12.2158 37.9379 12.0831 38.2033 11.1941 37.6327C10.9817 37.3275 10.7694 37.0356 10.5704 36.7039C10.159 36.0536 9.74766 35.4034 9.36284 34.7399C9.28322 34.5674 9.20361 34.5144 9.01783 34.5674C7.8501 34.8328 6.66909 34.8328 5.51463 34.5144C4.69191 34.302 4.02843 33.7845 3.48437 33.1609C3.24551 32.8822 3.0332 32.5372 2.80761 32.2585C2.79434 32.2054 2.7678 32.1789 2.74126 32.1258C2.78107 32.0993 2.80761 32.0727 2.82088 32.0727C3.74976 31.7675 4.70518 31.6083 5.67387 31.6879C6.64255 31.741 7.42547 32.2054 8.11549 32.8822C8.27473 33.0414 8.42069 33.1874 8.60647 33.3201C8.5932 33.267 8.56666 33.2139 8.54012 33.1609C7.92972 31.94 7.38566 30.6661 6.92122 29.379C6.88141 29.2463 6.82833 29.2197 6.69563 29.2197C5.54117 29.2994 4.41324 29.0871 3.35167 28.6226C2.52895 28.2643 1.95835 27.6407 1.52045 26.8843C1.30814 26.5525 1.1489 26.1677 0.949857 25.7564C1.33468 25.7564 1.67969 25.7033 2.0247 25.7033C2.68818 25.6767 3.35167 25.7298 4.00189 25.9023C4.89096 26.1677 5.51463 26.7118 6.04542 27.4283C6.17811 27.5876 6.28427 27.7468 6.39043 27.906C6.05869 26.4862 5.72695 25.0531 5.3952 23.6332C4.86442 23.5005 4.29382 23.3944 3.76303 23.2218C2.94031 22.9432 2.17067 22.5451 1.56026 21.8949C1.02948 21.3243 0.485418 20.0769 0.41907 19.3073C0.43234 19.3073 0.432338 19.3073 0.445607 19.3073C1.5868 19.3206 2.68818 19.5329 3.68341 20.1565C4.29382 20.5148 4.67864 21.112 4.99711 21.7356C5.07673 21.8683 5.14308 22.001 5.23597 22.147C5.10327 20.7271 5.05019 19.3206 5.15635 17.9007C4.43979 17.6884 3.78957 17.4097 3.19244 17.0249C2.31664 16.4543 1.56026 15.7775 1.24179 14.7425C1.06928 14.1985 0.963127 13.6279 0.949857 13.0573C0.936587 13.0042 0.949857 12.9511 0.949857 12.8184C1.45411 13.0042 1.94509 13.1369 2.40952 13.2828C3.04647 13.5482 3.63033 13.88 4.12131 14.3975C4.54594 14.8487 4.77153 15.3927 4.9573 15.9501C5.03692 16.2154 5.10327 16.4808 5.20943 16.733C5.20943 16.6533 5.2227 16.6268 5.2227 16.5472C5.34213 15.1804 5.5279 13.8269 5.80656 12.4867C5.8331 12.354 5.81983 12.2478 5.6606 12.1947C4.58575 11.6772 3.70995 10.9208 3.04647 9.91234C2.58203 9.20905 2.47587 8.4394 2.48914 7.60341C2.48914 7.29821 2.52895 7.00628 2.56876 6.648C2.96685 6.86031 3.35167 7.01955 3.68341 7.21859C4.42651 7.64322 5.07673 8.16074 5.50136 8.90384C5.8331 9.47444 5.91272 10.1247 5.9658 10.7749C5.99234 10.9739 5.99234 11.1862 6.04542 11.372C6.05869 11.3189 6.07196 11.2659 6.08523 11.2128C6.43024 9.84599 6.8416 8.46594 7.37238 7.13897C7.42546 7.00628 7.42547 6.92666 7.30604 6.86031C6.39043 6.2101 5.7004 5.38737 5.19615 4.36561C4.79806 3.55616 4.79807 2.73344 4.97057 1.89744C5.02365 1.59224 5.10327 1.31358 5.18289 1.00837L5.20943 0.981836C5.7933 1.34012 6.33735 1.75148 6.80179 2.269C7.51835 3.02537 7.90317 3.90117 7.82356 4.98928C7.79702 5.37411 7.75721 5.79874 7.73067 6.26318C7.75721 6.2101 7.77048 6.18356 7.78375 6.13048C8.07568 5.53334 8.36761 4.9362 8.65955 4.3258C8.68609 4.24618 8.68609 4.16656 8.68609 4.08694C8.65955 3.54289 8.67282 2.99883 8.81878 2.45477C8.92494 2.04341 9.08418 1.61878 9.38938 1.31358C9.74766 0.928756 10.1723 0.636824 10.6235 0.3847C10.8623 0.225463 11.1012 0.119305 11.3533 -0.00012207C11.3931 -0.00012207 11.4196 0.026417 11.4595 0.026417C11.4462 0.225462 11.4064 0.411239 11.3931 0.610284C11.3666 1.34012 11.1941 2.06995 10.8623 2.7069Z" fill="black"/>
</svg>
