<svg width="93" height="24" viewBox="0 0 93 24" fill="none" xmlns="http://www.w3.org/2000/svg">
<path id="Forbes logo" fill-rule="evenodd" clip-rule="evenodd" d="M52.6622 3.85448C52.6622 5.97438 52.6716 7.70884 52.683 7.70884C52.6945 7.70884 52.8966 7.61999 53.1322 7.51137C55.1063 6.60134 57.3197 6.55404 58.9729 7.38652C60.1697 7.98925 61.3095 9.21523 61.9382 10.5759C62.2044 11.1522 62.5299 12.1637 62.6382 12.7514C62.7636 13.432 62.7468 16.1531 62.6129 16.858C62.4399 17.7682 62.1271 18.7091 61.7333 19.5038C60.6347 21.7209 58.7718 23.164 56.2316 23.7656C55.2783 23.9914 53.0661 24.0635 51.7348 23.9122C50.5908 23.7821 48.5221 23.432 48.1123 23.2992L47.9384 23.2428L47.9366 14.0413C47.9352 7.22933 47.9166 4.68552 47.8648 4.24577C47.6822 2.69609 47.1891 2.1108 45.9243 1.94237L45.649 1.90568V1.62655C45.649 1.45765 45.6811 1.32075 45.7304 1.27989C45.8331 1.19463 52.0332 0.0188432 52.4448 0.00661359L52.6622 0.00012207V3.85448ZM18.8903 0.57306C18.9087 0.665043 18.9421 2.12187 18.9646 3.81043L19.0055 6.88059L18.5854 7.00816C18.3545 7.07835 18.1224 7.12744 18.0698 7.1173C18.0068 7.10518 17.8542 6.80315 17.6217 6.23016C17.1937 5.17516 17.0365 4.8605 16.6377 4.2602C16.0708 3.40691 15.2612 2.70171 14.4675 2.36989C13.7305 2.06177 13.3975 2.02873 11.0277 2.02873H8.85913L8.82227 2.70977C8.77671 3.55164 8.67447 7.98409 8.65546 9.94031L8.64137 11.3893L8.87321 11.4099C9.14899 11.4343 11.0228 11.3165 11.5913 11.239C12.6174 11.0991 13.3447 10.2424 13.7047 8.74969L13.8578 8.11474L14.336 8.11468L14.8141 8.11456V12.0269V15.9392H14.3487C14.0269 15.9392 13.8762 15.9168 13.8606 15.8668C13.8482 15.8269 13.7697 15.5465 13.6861 15.2437C13.4506 14.3904 13.0911 13.7015 12.6851 13.3257C12.1598 12.8393 11.7105 12.7411 9.64119 12.6602L8.61239 12.62L8.61297 13.1639C8.61361 13.7532 8.70281 16.4675 8.75845 17.5911C8.88486 20.142 9.09688 21.1403 9.6657 21.8626C9.95614 22.2314 10.4626 22.4069 12.0465 22.6873L12.2639 22.7258V23.1289V23.532H6.265H0.266113V23.1573C0.266113 22.8595 0.286921 22.7716 0.367544 22.7288C0.423302 22.6993 0.808042 22.607 1.22246 22.5237C1.86448 22.3946 2.02306 22.34 2.29472 22.1545C3.04415 21.6428 3.37273 20.6481 3.51496 18.4605C3.61123 16.9795 3.65151 9.64813 3.57663 7.23542C3.50418 4.90293 3.44384 4.20972 3.24458 3.42013C3.00607 2.47537 2.6972 2.01946 2.09186 1.7187C1.79058 1.56905 1.04863 1.39175 0.71774 1.39036C0.283501 1.38856 0.266113 1.36827 0.266113 0.862745V0.405844H9.56149H18.8569L18.8903 0.57306ZM45.9338 6.6768C46.4299 6.82952 46.6343 6.9375 46.6343 7.04664C46.6343 7.15051 45.0735 11.3657 45.0077 11.4397C44.983 11.4674 44.8238 11.4107 44.6539 11.3136C43.9699 10.923 43.1536 10.7116 42.3163 10.7084C41.4469 10.705 40.5297 10.9867 40.163 11.3696L39.9979 11.542L40.0005 15.4939C40.0027 18.8739 40.0177 19.5697 40.1041 20.3018C40.2658 21.6719 40.4784 22.1605 41.0266 22.4219C41.2789 22.5422 41.9817 22.6626 42.4317 22.6626C42.8483 22.6626 42.8669 22.6826 42.8669 23.1325V23.532H37.9667H33.0665L33.0836 23.1118L33.1006 22.6917L33.4463 22.6487C33.96 22.5848 34.335 22.4411 34.5907 22.2101C35.0421 21.8023 35.1894 21.2914 35.2743 19.8399C35.3428 18.6684 35.3389 11.9293 35.2692 11.0705C35.1398 9.47564 34.7543 8.92282 33.6482 8.74592C33.4108 8.70796 33.1827 8.65052 33.1413 8.61824C33.0929 8.58039 33.0723 8.45624 33.0834 8.26862L33.1006 7.97772L36.4623 7.2957C38.3112 6.92058 39.8862 6.61235 39.9623 6.61067L40.1006 6.60759L40.0601 8.44783L40.0196 10.2881L40.366 9.69381C41.0072 8.59395 41.5249 7.97146 42.2316 7.45063C43.4023 6.58777 44.7379 6.30858 45.9338 6.6768ZM74.1176 6.77446C75.4569 7.12367 76.5025 7.82175 77.322 8.91366C78.2453 10.1439 78.7164 11.6637 78.8932 13.983L78.9319 14.4902H73.9694C71.2401 14.4902 69.0074 14.5097 69.0079 14.5337C69.0181 15.0518 69.1472 16.3504 69.232 16.7877C69.6319 18.8505 70.6575 20.3193 72.2206 21.0675C72.9908 21.4362 73.3475 21.5125 74.4553 21.5455C75.9516 21.59 76.7436 21.3918 77.7745 20.7147L78.2516 20.4013L78.44 20.6142C78.5436 20.7314 78.6284 20.871 78.6284 20.9245C78.6284 21.0838 77.9924 21.7945 77.488 22.1989C76.33 23.1275 75.0502 23.6869 73.5569 23.9173C72.7768 24.0376 71.2227 23.9934 70.485 23.8299C69.426 23.5952 68.63 23.2571 67.749 22.6678C65.7386 21.3231 64.4632 19.0443 64.2497 16.4154C64.103 14.6081 64.3494 12.8973 64.9722 11.3991C66.0107 8.90074 68.072 7.20262 70.6563 6.71633C71.1428 6.62481 72.5248 6.57062 73.1511 6.61855C73.438 6.64046 73.873 6.71065 74.1176 6.77446ZM88.3947 6.67089C89.0636 6.73285 90.4198 7.03795 91.1478 7.29025L91.4666 7.40072L91.5019 7.94601C91.5213 8.24596 91.5557 9.22276 91.5784 10.1168L91.6197 11.7423L91.2963 11.8442C91.1185 11.9003 90.9498 11.9319 90.9216 11.9144C90.8934 11.897 90.7745 11.6356 90.6575 11.3336C90.405 10.6819 89.9773 9.82775 89.6767 9.37491C89.1533 8.58636 88.2123 7.95807 87.3514 7.82221C85.6929 7.56046 84.5403 8.56138 84.5403 10.2635C84.5403 10.6553 84.5642 10.755 84.7445 11.1153C85.1703 11.9665 85.9705 12.5139 88.1918 13.4736C90.0415 14.2727 90.9058 14.8229 91.5716 15.6252C92.1997 16.3819 92.368 16.9125 92.4076 18.2614C92.4327 19.1156 92.4217 19.2786 92.3079 19.7394C91.9765 21.0811 91.086 22.2878 89.9133 22.9843C88.1518 24.0305 85.4267 24.2808 82.3668 23.6774C81.5229 23.511 80.7441 23.3003 80.3521 23.1322L80.0906 23.0201L80.0565 21.7836C80.0378 21.1035 80.0082 20.0107 79.9909 19.3553L79.9593 18.1635L80.2898 18.0593C80.6847 17.9349 80.672 17.9245 80.9521 18.5994C81.6998 20.4005 82.5639 21.5227 83.6043 22.0435C84.274 22.3787 84.6174 22.4474 85.4901 22.4208C86.1041 22.4022 86.2342 22.3799 86.5273 22.2436C87.0003 22.0236 87.5101 21.5176 87.7579 21.0224C87.9543 20.6298 87.9599 20.5994 87.9587 19.9452C87.9577 19.4005 87.9356 19.2238 87.843 19.0197C87.4659 18.1888 86.7318 17.6972 84.5403 16.808C83.1632 16.2492 82.8582 16.0973 82.1733 15.6289C81.3259 15.0493 80.6744 14.1341 80.4551 13.2151C80.3083 12.5994 80.28 11.5938 80.3917 10.9546C80.6982 9.20033 81.9974 7.74646 83.8976 7.03123C85.059 6.59409 86.4027 6.4864 88.3947 6.67089ZM26.5801 6.69158C27.57 6.84129 28.6892 7.2746 29.5145 7.82772C30.143 8.2488 30.9851 9.08517 31.3926 9.69288C32.5321 11.392 33.0322 13.6255 32.8451 16.179C32.7718 17.1801 32.6806 17.6562 32.397 18.5184C31.4022 21.543 29.0084 23.5344 25.8846 23.9362C25.2966 24.0118 23.8514 24.01 23.2976 23.933C21.7362 23.7158 20.2818 23.0498 19.2577 22.083C18.6182 21.4793 18.1703 20.8866 17.7851 20.1341C16.9177 18.4395 16.574 16.3486 16.7912 14.0875C16.9046 12.9056 17.3471 11.4735 17.9096 10.4679C18.4219 9.55163 19.3629 8.52817 20.2317 7.94184C21.1428 7.32706 22.5051 6.79481 23.4792 6.67297C24.1541 6.58858 25.9713 6.59948 26.5801 6.69158ZM24.1883 7.71052C23.1307 7.97627 22.4298 9.025 22.0294 10.9407C21.7778 12.1438 21.7472 12.597 21.7495 15.0698C21.7513 16.9943 21.7697 17.5321 21.8513 18.0548C22.1354 19.8737 22.5524 21.0969 23.1779 21.9456C23.4842 22.3613 23.7063 22.5426 24.1683 22.7541C24.4696 22.892 24.5571 22.9056 25.0063 22.8838C25.4386 22.8628 25.5583 22.8325 25.8737 22.6641C26.7654 22.1878 27.3605 21.0181 27.6749 19.1236C27.8794 17.8907 27.9283 16.9907 27.896 15.0548C27.8609 12.9608 27.7577 12.0531 27.4145 10.8218C26.9734 9.23934 26.3386 8.263 25.4938 7.86765C25.0885 7.67795 24.5674 7.61523 24.1883 7.71052ZM71.4253 7.73938C70.3027 8.15148 69.4868 9.79674 69.1242 12.3791C69.0584 12.8481 69.0116 13.2381 69.0203 13.2457C69.0399 13.2629 73.1834 13.2953 73.7163 13.2825L74.1075 13.273L74.107 12.9977C74.1062 12.5862 73.8923 10.7405 73.7853 10.2226C73.3779 8.25013 72.513 7.3401 71.4253 7.73938ZM53.1549 8.71039L52.6912 8.83907L52.6622 10.5489C52.6259 12.6901 52.6517 21.0567 52.6975 22.009L52.7316 22.7175L52.9258 22.7539C53.0326 22.7739 53.4539 22.7811 53.8619 22.7699C54.5391 22.7513 54.6334 22.735 54.9422 22.5834C56.2896 21.9218 57.295 19.9088 57.6849 17.0919C57.8247 16.0827 57.8252 14.0069 57.6861 13.0991C57.507 11.9306 57.1851 10.9198 56.7677 10.2154C56.4341 9.65248 55.8352 9.06957 55.3378 8.82371C54.9202 8.61737 54.8701 8.60676 54.2592 8.59453C53.7469 8.58433 53.5256 8.60757 53.1549 8.71039Z" fill="black"/>
</svg>
