<svg width="103" height="32" viewBox="0 0 103 32" fill="none" xmlns="http://www.w3.org/2000/svg">
<path id="Travel+ leisure" fill-rule="evenodd" clip-rule="evenodd" d="M94.5315 0.0560872C94.4851 0.1024 94.4471 1.61998 94.4471 3.42867V6.71702H90.9548H87.4626V7.30775V7.89848H90.9548H94.4471V11.3247V14.7509H95.0982H95.7493V11.3247V7.89848H99.2416H102.734V7.30775V6.71702H99.2435H95.753L95.7216 3.37941L95.6901 0.0417916L95.153 0.00682019C94.8576 -0.0124375 94.5779 0.00977409 94.5315 0.0560872ZM0.569824 1.63581V3.17265H3.17305H5.7764L5.80707 8.93225L5.83784 14.6919H7.55439H9.27094L9.30171 8.9345L9.33238 3.17726L11.9061 3.14536L14.4798 3.11358V1.63676V0.159937L7.52479 0.129455L0.569824 0.0989741V1.63581ZM16.225 7.38927L16.2555 14.6919L18.0016 14.7246L19.7478 14.7572V12.093V9.4287L21.7289 9.46107L23.71 9.49344L25.1489 12.0926L26.5876 14.6919L28.5541 14.7242C29.9271 14.7469 30.5206 14.7174 30.5206 14.6264C30.5206 14.5548 29.7912 13.2424 28.8998 11.71L27.2789 8.92375L27.544 8.73601C29.4805 7.36422 30.1448 6.21939 30.0195 4.47001C29.8896 2.65907 28.6681 1.11893 26.8259 0.443369C26.1001 0.177305 25.9562 0.169388 21.1378 0.12851L16.1945 0.0866862L16.225 7.38927ZM35.0757 7.20189C33.254 11.1074 31.7464 14.4051 31.7254 14.53C31.6888 14.747 31.7679 14.7558 33.5011 14.7245L35.3151 14.6919L35.9652 13.1855L36.6153 11.6791H39.7761C42.1751 11.6791 42.9596 11.7147 43.0316 11.8268C43.0837 11.9081 43.394 12.5859 43.7212 13.3332L44.3158 14.6919L46.2515 14.7243C47.9854 14.7535 48.1796 14.7372 48.1145 14.5679C48.0746 14.4639 46.5424 11.1663 44.7097 7.23982L41.3776 0.100864H39.8826H38.3877L35.0757 7.20189ZM45.2371 0.248546C45.4484 0.748775 51.8416 14.3765 51.9453 14.5478C52.0583 14.7343 52.2374 14.7544 53.5197 14.7251L54.9666 14.6919L58.1241 7.95755C59.8606 4.25368 61.3893 0.970653 61.5209 0.662057L61.7604 0.100864H59.8406H57.9209L55.7696 5.09252C54.5862 7.83799 53.5752 10.0608 53.5229 10.0321C53.4705 10.0035 52.4687 7.75729 51.2967 5.04077L49.1658 0.101454L47.1703 0.1011C45.6193 0.100982 45.1885 0.133827 45.2371 0.248546ZM63.1941 7.42589V14.7509H69.5868H75.9795V13.2164V11.6819L71.3921 11.651L66.8048 11.6201L66.7717 10.1137L66.7385 8.60735H69.3465H71.9545V7.07146V5.53556H69.35H66.7456V4.35411V3.17265H71.1258H75.5059V1.63676V0.100864H69.35H63.1941V7.42589ZM78.4655 7.42589V14.7509H84.4438H90.4221V13.2166V11.6822L86.2491 11.6511L82.0762 11.6201L82.0454 5.86046L82.0147 0.100864H80.24H78.4655V7.42589ZM25.6425 3.32612C26.7423 3.92524 26.765 5.48299 25.684 6.15394C25.2683 6.41185 25.1532 6.42166 22.5298 6.42166H19.807L19.7737 4.89202C19.7554 4.05071 19.7684 3.2895 19.8026 3.20042C19.8534 3.06833 20.3608 3.04541 22.5588 3.07601C24.8821 3.10838 25.3062 3.14276 25.6425 3.32612ZM40.8866 6.85277C41.3057 7.82924 41.6485 8.6767 41.6485 8.73589C41.6485 8.79638 40.8111 8.84364 39.7418 8.84364C38.263 8.84364 37.8486 8.81044 37.8955 8.69596C38.1038 8.18734 39.6693 4.63222 39.7233 4.54503C39.8105 4.4042 39.9802 4.74068 40.8866 6.85277ZM43.7624 16.7016C42.0352 17.045 40.791 17.7706 40.0712 18.8542C38.9613 20.5253 39.2538 23.0659 40.6816 24.1557C41.837 25.0376 42.6716 25.2603 46.1557 25.6168C49.1231 25.9204 49.8175 26.2323 49.8165 27.2608C49.8152 28.5731 48.1743 29.3034 45.8254 29.0371C44.1729 28.8497 43.0768 28.4126 41.4872 27.307C40.7185 26.7724 40.531 26.6874 40.4107 26.8193C40.0118 27.2568 38.5706 29.024 38.5706 29.0757C38.5706 29.1085 38.971 29.4114 39.4604 29.749C40.6235 30.5515 42.287 31.3278 43.5427 31.6543C44.9205 32.0124 47.4705 32.1014 48.857 31.8399C51.8926 31.2671 53.5869 29.2435 53.3299 26.4974C53.1467 24.5381 51.8493 23.2615 49.5134 22.7418C49.0534 22.6394 47.7748 22.4748 46.6722 22.3759C45.5695 22.277 44.417 22.1379 44.1111 22.0666C43.3783 21.896 42.9507 21.4978 42.9507 20.9855C42.9507 20.4739 43.2055 20.1257 43.8168 19.8021C44.2378 19.5793 44.4988 19.54 45.5552 19.54C47.2139 19.5402 48.7044 19.9418 49.9438 20.7226C50.1969 20.8821 50.4452 21.0102 50.4953 21.0071C50.6411 20.9981 52.3622 18.8233 52.3622 18.648C52.3622 18.4433 51.536 17.9611 50.4054 17.5056C48.2118 16.6221 45.695 16.3175 43.7624 16.7016ZM72.7241 17.0122C72.6902 17.1006 72.6764 20.416 72.6933 24.3798L72.7239 31.5867L74.4701 31.6194L76.2162 31.652V28.9907V26.3292H78.2013H80.1864L81.6461 28.9875L83.1058 31.6458H85.1066C86.2071 31.6458 87.1074 31.6234 87.1074 31.5961C87.1074 31.5688 86.3545 30.2554 85.4342 28.6773L83.761 25.8082L84.0401 25.6256C85.8674 24.4308 86.5842 23.1948 86.4951 21.3924C86.3938 19.3398 85.0613 17.7981 82.8301 17.1521C81.9291 16.8913 72.8188 16.7651 72.7241 17.0122ZM2.70071 24.3187V31.6479L8.64943 31.6173L14.5981 31.5867L14.6313 30.0803L14.6644 28.574H10.4594H6.25443L6.22377 22.8144L6.19299 17.0548L4.44685 17.022L2.70071 16.9894V24.3187ZM16.6985 24.2901L16.729 31.5867H23.1217H29.5143L29.5475 30.0803L29.5806 28.574H24.901H20.2213V27.0381V25.5022H22.8849H25.5485V23.9663V22.4304H22.8849H20.2213V21.2489V20.0675H24.5992H28.9771L29.0435 19.8017C29.08 19.6554 29.0943 18.9776 29.0754 18.2953L29.0408 17.0548L22.8544 17.0242L16.6681 16.9936L16.6985 24.2901ZM32.5331 24.3207V31.6458H34.3088H36.0846V24.3207V16.9957H34.3088H32.5331V24.3207ZM55.8785 22.3418L55.9136 27.6879L56.261 28.5149C56.5234 29.1394 56.7987 29.5325 57.3856 30.1204C58.6942 31.4308 60.2616 32.0002 62.5613 32.0002C66.0972 32.0002 68.512 30.3933 69.1715 27.6015C69.3111 27.0108 69.3468 25.8626 69.3483 21.9283L69.35 16.9957H67.5743H65.7986V21.7591C65.7986 27.0743 65.7604 27.4001 65.0619 28.0618C64.3367 28.7488 63.9709 28.869 62.6022 28.8691C61.2159 28.8693 60.7372 28.7133 60.0639 28.0414C59.4322 27.4108 59.4059 27.1641 59.4059 21.8555V16.9957H57.6246H55.8432L55.8785 22.3418ZM89.5934 24.3207V31.6458H95.9861H102.379V30.1099V28.574H97.7618H93.1449V27.0381V25.5022H95.7493H98.3537V23.9663V22.4304H95.7493H93.1449V21.2489V20.0675H97.5251H101.905V18.5316V16.9957H95.7493H89.5934V24.3207ZM81.7196 20.0814C81.9839 20.1547 82.3618 20.3921 82.5779 20.6209C82.9007 20.9624 82.9639 21.1202 82.9635 21.5822C82.9631 22.2537 82.6517 22.8094 82.111 23.1039C81.7675 23.2911 81.3959 23.3165 78.9982 23.3165H76.2754L76.2421 21.7869C76.2238 20.9455 76.2354 20.1879 76.268 20.1033C76.3448 19.9036 81.0102 19.8849 81.7196 20.0814Z" fill="black"/>
</svg>
