<svg width="126" height="50" viewBox="0 0 126 50" fill="none" xmlns="http://www.w3.org/2000/svg">
<g id="Wired_logo 1">
<path id="Vector" d="M104.446 15.198V31.7992H112.626C114.911 31.7992 116.235 31.4383 117.197 30.5962C118.4 29.5135 119.001 27.5887 119.001 23.4986C119.001 19.4084 118.4 17.4837 117.197 16.401C116.235 15.5589 114.911 15.198 112.626 15.198H104.446ZM115.633 23.4986C115.633 27.1075 115.392 27.9496 114.671 28.4308C114.189 28.7917 113.588 28.912 112.385 28.912H107.814V17.9649H112.385C113.588 17.9649 114.189 17.9649 114.671 18.4461C115.392 19.0475 115.633 19.8896 115.633 23.4986ZM123.212 35.4688H99.2122V11.4688H123.212V35.4688ZM79.6049 17.9649V15.198H93.7998V20.4911H90.7914V17.9649H85.0172V21.9347H89.5885V24.5813H85.0172V29.0323H90.9127V26.1451H93.9191V31.7992H79.6058V29.0323H81.8905V17.9649H79.6049ZM66.7332 27.4684C66.7332 29.2729 66.8525 30.5962 67.0931 31.6789H70.3421C70.2208 30.8368 70.1015 29.2729 70.1015 27.2278C69.9802 24.8219 69.2584 24.461 67.5743 24.1001C69.499 23.7392 70.3421 22.8971 70.3421 19.8896C70.3421 17.4837 69.9802 16.5213 69.2584 15.9198C68.7773 15.4386 67.9361 15.198 66.6119 15.198H56.5071V31.7992H59.8754V25.3031H64.5679C65.5302 25.3031 65.8902 25.4234 66.252 25.664C66.6139 25.9046 66.7332 26.2654 66.7332 27.4684ZM59.8754 22.6565V18.0852H65.2896C66.0114 18.0852 66.252 18.2055 66.3713 18.3258C66.6119 18.5664 66.8525 18.9272 66.8525 20.3708C66.8525 21.8144 66.6119 22.2956 66.3713 22.5362C66.252 22.6565 66.0114 22.7768 65.2896 22.7768L59.8754 22.6565ZM75.1539 35.4688H51.0947V11.4688H75.0933V35.4688H75.1539ZM44.8393 29.0323V31.7992H33.4102V29.0323H37.5003V17.9649H33.4102V15.198H44.8383V17.9649H40.7483V29.0323H44.8393ZM25.5313 15.198H22.4036L20.118 28.3105L17.4715 16.1604C17.3512 15.3183 16.9903 15.198 16.2685 15.198H14.5844C13.8626 15.198 13.5017 15.4386 13.3814 16.1604L10.7349 28.3105L8.44928 15.198H5.08099L8.32898 30.9571C8.44928 31.6789 8.68987 31.7992 9.53194 31.7992H11.8176C12.5393 31.7992 12.7799 31.6789 13.0205 30.9571L15.5467 19.5287L18.073 30.9571C18.1933 31.6789 18.4338 31.7992 19.2759 31.7992H21.4412C22.163 31.7992 22.5239 31.6789 22.6442 30.9571L25.5313 15.198ZM27.2155 35.4688H3.15625V11.4688H27.1558V35.4688H27.2155Z" fill="black"/>
</g>
</svg>
