<svg width="1440" height="2339" viewBox="0 0 1440 2339" fill="none" xmlns="http://www.w3.org/2000/svg">
<path d="M-3 8H46.4575C91.7449 8 128.458 44.7127 128.458 90V369C128.458 414.287 165.17 451 210.458 451H1231.23C1276.52 451 1313.23 487.713 1313.23 533V838.5C1313.23 883.787 1276.52 920.5 1231.23 920.5H210.458C165.17 920.5 128.458 957.213 128.458 1002.5V1308C128.458 1353.29 165.17 1390 210.458 1390H1231.23C1276.52 1390 1313.23 1426.71 1313.23 1472V1779C1313.23 1824.29 1276.52 1861 1231.23 1861H210.458C165.17 1861 128.458 1897.71 128.458 1943V2249C128.458 2294.29 165.17 2331 210.458 2331H1313.23H1506" stroke="white" stroke-width="16"/>
<circle cx="1309" cy="671" r="24" fill="#F5F5F5" stroke="white" stroke-width="16"/>
<circle cx="1309" cy="1623" r="24" fill="#F5F5F5" stroke="white" stroke-width="16"/>
<circle cx="104" cy="2101" r="24" fill="#F5F5F5" stroke="white" stroke-width="16"/>
<circle cx="104" cy="1160" r="24" fill="#F5F5F5" stroke="white" stroke-width="16"/>
<circle cx="130" cy="228" r="24" fill="#F5F5F5" stroke="white" stroke-width="16"/>
</svg>
