<svg width="119" height="20" viewBox="0 0 119 20" fill="none" xmlns="http://www.w3.org/2000/svg">
<g id="Logo_AITA">
<path id="Vector" d="M70.3153 19.9647H1.80474C0.832955 19.9647 0 19.1384 0 18.1055C0 17.0726 0.832955 16.2463 1.80474 16.2463H70.3153V19.9647Z" fill="#20AC48"/>
<path id="Vector_2" d="M101.135 16.2463H70.3152V19.9647H101.135V16.2463Z" fill="#FCCB57"/>
<path id="Vector_3" d="M116.81 19.9647H100.915V16.2463H116.81C117.851 16.2463 118.684 17.0726 118.684 18.1055C118.684 19.1384 117.851 19.9647 116.81 19.9647Z" fill="#EA1A0E"/>
<path id="Vector_4" d="M0.690001 12.4794C0.551175 12.4794 0.412354 12.4106 0.412354 12.2728C0.412354 12.204 0.412354 12.204 0.412354 12.1351C2.12012 7.99383 4.78536 1.53069 4.78536 1.53069C4.85477 1.32411 4.9936 1.25525 5.13242 1.25525H6.38186C6.5901 1.25525 6.65951 1.32411 6.79834 1.53069L11.1019 12.1351C11.1019 12.204 11.1019 12.204 11.1019 12.2728C11.1019 12.4106 11.0325 12.4794 10.8937 12.4794H9.22779C9.01955 12.4794 8.95014 12.4106 8.88073 12.204L8.11718 10.4136H3.46652L2.77239 12.204C2.70298 12.4106 2.56415 12.4794 2.42532 12.4794H0.690001ZM7.42305 8.48554L5.82655 4.21623L4.23006 8.48554H7.42305Z" fill="white"/>
<path id="Vector_5" d="M13.0496 12.4789C12.8414 12.4789 12.772 12.3411 12.772 12.2034V1.59899C12.772 1.39241 12.9108 1.32355 13.0496 1.32355H17.4921C18.4638 1.32355 19.3662 1.73671 19.9909 2.42531C20.6156 3.1139 20.9627 4.00908 20.9627 4.90426C20.9627 5.79944 20.6156 6.69462 19.9215 7.38322C19.2968 8.07182 18.3944 8.48498 17.3532 8.48498H14.8544V12.2034C14.8544 12.41 14.7849 12.4789 14.5767 12.4789H13.0496ZM17.0062 6.5569C17.4921 6.5569 17.9085 6.41918 18.2556 6.07488C18.5332 5.79944 18.7415 5.38628 18.7415 4.90426C18.7415 4.42224 18.6027 4.00908 18.2556 3.73364C17.9085 3.38934 17.4921 3.25162 17.0062 3.25162H14.9238V6.5569H17.0062Z" fill="white"/>
<path id="Vector_6" d="M22.5591 12.4789C22.3509 12.4789 22.2815 12.3411 22.2815 12.2034V1.59899C22.2815 1.39241 22.4203 1.32355 22.5591 1.32355H27.0016C27.9734 1.32355 28.8757 1.73671 29.5004 2.42531C30.1252 3.1139 30.4722 4.00908 30.4722 4.90426C30.4722 5.79944 30.1252 6.69462 29.431 7.38322C28.8063 8.07182 27.9039 8.48498 26.8627 8.48498H24.3639V12.2034C24.3639 12.41 24.2945 12.4789 24.0862 12.4789H22.5591ZM26.5851 6.5569C27.071 6.5569 27.4875 6.41918 27.8345 6.07488C28.1122 5.79944 28.3204 5.38628 28.3204 4.90426C28.3204 4.42224 28.1816 4.00908 27.8345 3.73364C27.4875 3.38934 27.071 3.25162 26.5851 3.25162H24.5027V6.5569H26.5851Z" fill="white"/>
<path id="Vector_7" d="M36.9278 12.4791C36.7196 12.4791 36.6501 12.3414 36.6501 12.2037V1.66814C36.6501 1.46156 36.7196 1.3927 36.9278 1.3927H38.5937C38.7325 1.32384 38.8714 1.46156 38.8714 1.66814V12.2037C38.8714 12.4103 38.802 12.4791 38.5937 12.4791H36.9278Z" fill="white"/>
<path id="Vector_8" d="M41.6478 12.4789C41.4396 12.4789 41.3008 12.3411 41.3008 12.1346V1.66785C41.3008 1.46127 41.4396 1.32355 41.6478 1.32355H43.4526C43.5914 1.32355 43.7997 1.39241 43.8691 1.53013L48.8668 8.6227V1.53013C48.9362 1.39241 49.075 1.32355 49.1445 1.32355H50.6715C50.8798 1.32355 51.0186 1.46127 51.0186 1.66785V12.2034C51.0186 12.41 50.8798 12.5477 50.6715 12.5477H49.1445C48.9362 12.5477 48.8668 12.4789 48.728 12.2723L43.522 4.69768V12.1346C43.522 12.3411 43.4526 12.4789 43.1749 12.4789H41.6478Z" fill="white"/>
<path id="Vector_9" d="M60.5975 12.4789C60.3893 12.4789 60.3199 12.41 60.3199 12.2034V3.32048H57.4739C57.2657 3.32048 57.1963 3.25162 57.1963 3.04505V1.59899C57.1963 1.39241 57.2657 1.32355 57.4739 1.32355H65.4564C65.6647 1.32355 65.7341 1.39241 65.7341 1.59899V3.04505C65.7341 3.25162 65.6647 3.32048 65.4564 3.32048H62.5411V12.2034C62.5411 12.41 62.4717 12.4789 62.2634 12.4789H60.5975Z" fill="white"/>
<path id="Vector_10" d="M67.6778 12.4795C67.4696 12.4795 67.4001 12.3418 67.4001 12.2041V1.66854C67.4001 1.46196 67.539 1.3931 67.6778 1.3931H69.3437C69.4825 1.3931 69.6214 1.46196 69.6214 1.66854V5.59355H74.6885V1.66854C74.6885 1.46196 74.7579 1.3931 74.9662 1.3931H76.6321C76.7709 1.3931 76.9097 1.46196 76.9097 1.66854V12.273C76.9097 12.4795 76.8403 12.5484 76.5627 12.5484H74.9662C74.7579 12.5484 74.6885 12.4107 74.6885 12.273V7.65935H69.6214V12.2041C69.6214 12.4107 69.5519 12.4795 69.2743 12.4795H67.6778Z" fill="white"/>
<path id="Vector_11" d="M79.4085 12.4789C79.2003 12.4789 79.1309 12.41 79.1309 12.2034V1.59899C79.1309 1.39241 79.2003 1.32355 79.4085 1.32355H86.8357C87.0439 1.32355 87.1134 1.39241 87.1134 1.59899V3.04505C87.1134 3.25162 86.9745 3.32048 86.8357 3.32048H81.3521V5.59286H85.5169C85.7251 5.59286 85.8639 5.66172 85.8639 5.8683V7.31436C85.8639 7.52094 85.7251 7.5898 85.5169 7.5898H81.3521V10.3442H86.9745C87.1828 10.3442 87.3216 10.4131 87.3216 10.6196V12.0657C87.3216 12.2723 87.1828 12.4789 86.9745 12.4789H79.4085Z" fill="white"/>
<path id="Vector_12" d="M93.0132 12.4794C92.8744 12.4794 92.7356 12.4106 92.7356 12.2728C92.7356 12.204 92.7356 12.1351 92.7356 12.1351L97.1086 1.53069C97.178 1.32411 97.3168 1.25525 97.4557 1.25525H98.7051C98.9133 1.25525 98.9828 1.32411 99.1216 1.53069L103.425 12.1351C103.425 12.204 103.425 12.204 103.425 12.2728C103.425 12.4106 103.356 12.4794 103.217 12.4794H101.551C101.343 12.4794 101.273 12.4106 101.204 12.204L100.44 10.4136H95.7898L95.0956 12.204C95.0262 12.4106 94.8874 12.4794 94.7486 12.4794H93.0132ZM99.7463 8.48554L98.1498 4.21623L96.5533 8.48554H99.7463Z" fill="white"/>
<path id="Vector_13" d="M105.439 12.4795C105.23 12.4795 105.161 12.3418 105.161 12.2041V1.66854C105.161 1.46196 105.23 1.3931 105.439 1.3931H107.104C107.313 1.3931 107.382 1.53082 107.382 1.66854V12.2041C107.382 12.4107 107.313 12.4795 107.104 12.4795H105.439Z" fill="white"/>
<path id="Vector_14" d="M110.089 12.4789C109.881 12.4789 109.811 12.41 109.811 12.2034V1.59899C109.811 1.39241 109.95 1.32355 110.089 1.32355H114.878C115.92 1.32355 116.822 1.73671 117.447 2.42531C118.071 3.1139 118.418 4.00908 118.418 4.97312C118.418 5.59286 118.21 6.14374 117.863 6.76348C117.516 7.31436 117.03 7.72752 116.475 8.07182L118.557 12.1346C118.557 12.2034 118.557 12.2034 118.557 12.2723C118.557 12.41 118.488 12.4789 118.349 12.4789H116.405C116.197 12.4789 116.128 12.41 116.058 12.2034L114.254 8.6227H111.963V12.2034C111.963 12.41 111.894 12.4789 111.685 12.4789H110.089ZM114.393 6.69462C114.878 6.69462 115.364 6.48804 115.711 6.2126C116.112 5.89442 116.267 5.38628 116.267 4.97312C116.267 4.55996 116.058 4.07794 115.711 3.8025C115.364 3.52706 114.948 3.32048 114.393 3.32048H112.032V6.69462H114.393Z" fill="white"/>
</g>
</svg>
