<svg width="148" height="24" viewBox="0 0 148 24" fill="none" xmlns="http://www.w3.org/2000/svg">
<g id="Logo_AITA">
<path id="Vector" d="M87.6875 23.9648H2.25062C1.03875 23.9648 0 22.9726 0 21.7324C0 20.4922 1.03875 19.5 2.25062 19.5H87.6875V23.9648Z" fill="#20AC48"/>
<path id="Vector_2" d="M126.121 19.5H87.6875V23.9648H126.121V19.5Z" fill="#FCCB57"/>
<path id="Vector_3" d="M145.669 23.9648H125.847V19.5H145.669C146.968 19.5 148.007 20.4922 148.007 21.7324C148.007 22.9726 146.968 23.9648 145.669 23.9648Z" fill="#EA1A0E"/>
<path id="Vector_4" d="M0.860404 14.9771C0.687279 14.9771 0.51416 14.8944 0.51416 14.729C0.51416 14.6463 0.51416 14.6463 0.51416 14.5637C2.64385 9.59113 5.96757 1.83073 5.96757 1.83073C6.05413 1.58268 6.22725 1.5 6.40038 1.5H7.9585C8.21818 1.5 8.30475 1.58268 8.47788 1.83073L13.8447 14.5637C13.8447 14.6463 13.8447 14.6463 13.8447 14.729C13.8447 14.8944 13.7582 14.9771 13.585 14.9771H11.5076C11.2479 14.9771 11.1613 14.8944 11.0747 14.6463L10.1226 12.4966H4.32289L3.45727 14.6463C3.37071 14.8944 3.19758 14.9771 3.02446 14.9771H0.860404ZM9.25693 10.1815L7.266 5.0553L5.27508 10.1815H9.25693Z" fill="black"/>
<path id="Vector_5" d="M16.2737 14.9774C16.0141 14.9774 15.9275 14.812 15.9275 14.6467V1.91373C15.9275 1.66569 16.1006 1.58301 16.2737 1.58301H21.8137C23.0256 1.58301 24.1509 2.0791 24.93 2.90591C25.709 3.73272 26.1418 4.80758 26.1418 5.88244C26.1418 6.95729 25.709 8.03215 24.8434 8.85896C24.0643 9.68578 22.939 10.1819 21.6406 10.1819H18.5244V14.6467C18.5244 14.8947 18.4378 14.9774 18.1781 14.9774H16.2737ZM21.2078 7.86679C21.8137 7.86679 22.3331 7.70143 22.7659 7.28802C23.1122 6.95729 23.3718 6.46121 23.3718 5.88244C23.3718 5.30367 23.1987 4.80758 22.7659 4.47685C22.3331 4.06345 21.8137 3.89808 21.2078 3.89808H18.6109V7.86679H21.2078Z" fill="black"/>
<path id="Vector_6" d="M28.1326 14.9774C27.8729 14.9774 27.7864 14.812 27.7864 14.6467V1.91373C27.7864 1.66569 27.9595 1.58301 28.1326 1.58301H33.6726C34.8845 1.58301 36.0098 2.0791 36.7888 2.90591C37.5679 3.73272 38.0007 4.80758 38.0007 5.88244C38.0007 6.95729 37.5679 8.03215 36.7023 8.85896C35.9232 9.68578 34.7979 10.1819 33.4995 10.1819H30.3832V14.6467C30.3832 14.8947 30.2967 14.9774 30.037 14.9774H28.1326ZM33.1532 7.86679C33.7592 7.86679 34.2785 7.70143 34.7114 7.28802C35.0576 6.95729 35.3173 6.46121 35.3173 5.88244C35.3173 5.30367 35.1442 4.80758 34.7114 4.47685C34.2785 4.06345 33.7592 3.89808 33.1532 3.89808H30.5564V7.86679H33.1532Z" fill="black"/>
<path id="Vector_7" d="M46.0511 14.9768C45.7914 14.9768 45.7048 14.8114 45.7048 14.646V1.99579C45.7048 1.74774 45.7914 1.66506 46.0511 1.66506H48.1286C48.3017 1.58238 48.4748 1.74774 48.4748 1.99579V14.646C48.4748 14.8941 48.3883 14.9768 48.1286 14.9768H46.0511Z" fill="black"/>
<path id="Vector_8" d="M51.9372 14.9774C51.6775 14.9774 51.5044 14.812 51.5044 14.564V1.99641C51.5044 1.74837 51.6775 1.58301 51.9372 1.58301H54.1878C54.3609 1.58301 54.6206 1.66569 54.7072 1.83105L60.9397 10.3472V1.83105C61.0262 1.66569 61.1994 1.58301 61.2859 1.58301H63.1903C63.45 1.58301 63.6231 1.74837 63.6231 1.99641V14.6467C63.6231 14.8947 63.45 15.0601 63.1903 15.0601H61.2859C61.0262 15.0601 60.9397 14.9774 60.7666 14.7293L54.2744 5.63439V14.564C54.2744 14.812 54.1878 14.9774 53.8416 14.9774H51.9372Z" fill="black"/>
<path id="Vector_9" d="M75.5687 14.9774C75.309 14.9774 75.2224 14.8947 75.2224 14.6467V3.98077H71.6734C71.4137 3.98077 71.3271 3.89808 71.3271 3.65004V1.91373C71.3271 1.66569 71.4137 1.58301 71.6734 1.58301H81.628C81.8877 1.58301 81.9743 1.66569 81.9743 1.91373V3.65004C81.9743 3.89808 81.8877 3.98077 81.628 3.98077H77.9924V14.6467C77.9924 14.8947 77.9059 14.9774 77.6462 14.9774H75.5687Z" fill="black"/>
<path id="Vector_10" d="M84.3983 14.9767C84.1386 14.9767 84.052 14.8114 84.052 14.646V1.99576C84.052 1.74772 84.2251 1.66504 84.3983 1.66504H86.4757C86.6489 1.66504 86.822 1.74772 86.822 1.99576V6.7086H93.141V1.99576C93.141 1.74772 93.2276 1.66504 93.4873 1.66504H95.5648C95.7379 1.66504 95.911 1.74772 95.911 1.99576V14.7287C95.911 14.9767 95.8245 15.0594 95.4782 15.0594H93.4873C93.2276 15.0594 93.141 14.8941 93.141 14.7287V9.18904H86.822V14.646C86.822 14.8941 86.7354 14.9767 86.3892 14.9767H84.3983Z" fill="black"/>
<path id="Vector_11" d="M99.0272 14.9774C98.7675 14.9774 98.6809 14.8947 98.6809 14.6467V1.91373C98.6809 1.66569 98.7675 1.58301 99.0272 1.58301H108.289C108.549 1.58301 108.636 1.66569 108.636 1.91373V3.65004C108.636 3.89808 108.462 3.98077 108.289 3.98077H101.451V6.70925H106.645C106.904 6.70925 107.077 6.79193 107.077 7.03998V8.77628C107.077 9.02433 106.904 9.10701 106.645 9.10701H101.451V12.4143H108.462C108.722 12.4143 108.895 12.4969 108.895 12.745V14.4813C108.895 14.7293 108.722 14.9774 108.462 14.9774H99.0272Z" fill="black"/>
<path id="Vector_12" d="M115.993 14.9771C115.82 14.9771 115.647 14.8944 115.647 14.729C115.647 14.6463 115.647 14.5637 115.647 14.5637L121.1 1.83073C121.187 1.58268 121.36 1.5 121.533 1.5H123.091C123.351 1.5 123.438 1.58268 123.611 1.83073L128.978 14.5637C128.978 14.6463 128.978 14.6463 128.978 14.729C128.978 14.8944 128.891 14.9771 128.718 14.9771H126.64C126.381 14.9771 126.294 14.8944 126.208 14.6463L125.255 12.4966H119.456L118.59 14.6463C118.504 14.8944 118.33 14.9771 118.157 14.9771H115.993ZM124.39 10.1815L122.399 5.0553L120.408 10.1815H124.39Z" fill="black"/>
<path id="Vector_13" d="M131.488 14.9767C131.228 14.9767 131.142 14.8114 131.142 14.646V1.99576C131.142 1.74772 131.228 1.66504 131.488 1.66504H133.566C133.825 1.66504 133.912 1.8304 133.912 1.99576V14.646C133.912 14.894 133.825 14.9767 133.566 14.9767H131.488Z" fill="black"/>
<path id="Vector_14" d="M137.288 14.9774C137.028 14.9774 136.941 14.8947 136.941 14.6467V1.91373C136.941 1.66569 137.115 1.58301 137.288 1.58301H143.26C144.559 1.58301 145.684 2.0791 146.463 2.90591C147.242 3.73272 147.675 4.80758 147.675 5.96512C147.675 6.70925 147.415 7.3707 146.983 8.11483C146.55 8.77628 145.944 9.27237 145.251 9.68578L147.848 14.564C147.848 14.6467 147.848 14.6467 147.848 14.7293C147.848 14.8947 147.762 14.9774 147.589 14.9774H145.165C144.905 14.9774 144.819 14.8947 144.732 14.6467L142.481 10.3472H139.625V14.6467C139.625 14.8947 139.538 14.9774 139.279 14.9774H137.288ZM142.655 8.03215C143.26 8.03215 143.866 7.78411 144.299 7.45338C144.799 7.07134 144.992 6.46121 144.992 5.96512C144.992 5.46903 144.732 4.89026 144.299 4.55954C143.866 4.22881 143.347 3.98077 142.655 3.98077H139.711V8.03215H142.655Z" fill="black"/>
</g>
</svg>
