<svg width="1920" height="2339" viewBox="0 0 1920 2339" fill="none" xmlns="http://www.w3.org/2000/svg">
<path d="M-3 8H118.269C163.557 8 200.269 44.7127 200.269 90V369C200.269 414.287 236.982 451 282.269 451H1638C1683.29 451 1720 487.713 1720 533V838.5C1720 883.787 1683.29 920.5 1638 920.5H282C236.713 920.5 200 957.213 200 1002.5V1308C200 1353.29 236.713 1390 282 1390H1638C1683.29 1390 1720 1426.71 1720 1472V1779C1720 1824.29 1683.29 1861 1638 1861H282C236.713 1861 200 1897.71 200 1943V2249C200 2294.29 236.713 2331 282 2331H1720H1721H1964" stroke="white" stroke-width="16"/>
<circle cx="1719" cy="671" r="24" fill="#F5F5F5" stroke="white" stroke-width="16"/>
<circle cx="1719" cy="1623" r="24" fill="#F5F5F5" stroke="white" stroke-width="16"/>
<circle cx="200" cy="2101" r="24" fill="#F5F5F5" stroke="white" stroke-width="16"/>
<circle cx="200" cy="1160" r="24" fill="#F5F5F5" stroke="white" stroke-width="16"/>
<circle cx="200" cy="228" r="24" fill="#F5F5F5" stroke="white" stroke-width="16"/>
</svg>
