<svg width="176" height="52" viewBox="0 0 176 52" fill="none" xmlns="http://www.w3.org/2000/svg">
<rect width="175.5" height="52" rx="10.4" fill="white" fill-opacity="0.15"/>
<path d="M42.587 25.852C42.6015 24.7237 42.9021 23.6173 43.4607 22.6359C44.0192 21.6545 44.8177 20.83 45.7817 20.239C45.1693 19.3668 44.3614 18.6491 43.4221 18.1427C42.4829 17.6364 41.4382 17.3554 40.371 17.3221C38.0945 17.0838 35.8876 18.6805 34.7275 18.6805C33.545 18.6805 31.7589 17.3458 29.8356 17.3852C28.5916 17.4253 27.3791 17.786 26.3165 18.4323C25.2538 19.0786 24.3771 19.9883 23.7719 21.0729C21.1501 25.5995 23.1057 32.2521 25.6172 35.9111C26.8737 37.7028 28.3423 39.7042 30.2639 39.6332C32.1443 39.5554 32.8466 38.4375 35.1163 38.4375C37.365 38.4375 38.0239 39.6332 39.9845 39.5881C42.0023 39.5554 43.2735 37.7884 44.486 35.9798C45.3888 34.7031 46.0836 33.2922 46.5445 31.7991C45.3722 31.3047 44.3718 30.4771 43.6681 29.4196C42.9643 28.362 42.5883 27.1212 42.587 25.852Z" fill="white"/>
<path d="M38.8839 14.9171C39.984 13.6001 40.526 11.9073 40.3948 10.1982C38.714 10.3743 37.1614 11.1753 36.0464 12.4418C35.5012 13.0605 35.0837 13.7803 34.8177 14.56C34.5516 15.3397 34.4423 16.1641 34.4959 16.986C35.3366 16.9946 36.1683 16.8129 36.9284 16.4545C37.6885 16.0962 38.3571 15.5705 38.8839 14.9171Z" fill="white"/>
<path d="M65.1469 35.279H58.9762L57.4943 39.6424H54.8806L60.7254 23.499H63.4409L69.2857 39.6424H66.6275L65.1469 35.279ZM59.6153 33.2656H64.5066L62.0953 26.1841H62.0278L59.6153 33.2656Z" fill="white"/>
<path d="M81.9083 33.7599C81.9083 37.4174 79.9451 39.7673 76.9827 39.7673C76.2322 39.8065 75.4859 39.6341 74.8291 39.2699C74.1723 38.9057 73.6317 38.3645 73.269 37.7081H73.213V43.5378H70.7903V27.8743H73.1353V29.832H73.1799C73.5592 29.1788 74.109 28.6403 74.7707 28.2739C75.4325 27.9075 76.1815 27.7269 76.9381 27.7512C79.9337 27.7512 81.9083 30.1125 81.9083 33.7599ZM79.4181 33.7599C79.4181 31.377 78.1832 29.8104 76.299 29.8104C74.4479 29.8104 73.2028 31.41 73.2028 33.7599C73.2028 36.1314 74.4479 37.7196 76.299 37.7196C78.1832 37.7196 79.418 36.1644 79.418 33.7599H79.4181Z" fill="white"/>
<path d="M94.8994 33.7599C94.8994 37.4174 92.9356 39.7673 89.9731 39.7673C89.2227 39.8065 88.4763 39.6341 87.8196 39.2699C87.1628 38.9057 86.6221 38.3645 86.2595 37.7081H86.2035V43.5378H83.7808V27.8743H86.1258V29.832H86.1704C86.5497 29.1788 87.0995 28.6403 87.7612 28.2739C88.423 27.9075 89.172 27.7269 89.9285 27.7512C92.9242 27.7512 94.8994 30.1125 94.8994 33.7599ZM92.4086 33.7599C92.4086 31.377 91.1737 29.8104 89.2895 29.8104C87.4384 29.8104 86.1933 31.41 86.1933 33.7599C86.1933 36.1314 87.4384 37.7196 89.2895 37.7196C91.1737 37.7196 92.4086 36.1644 92.4086 33.7599Z" fill="white"/>
<path d="M103.484 35.1441C103.663 36.745 105.223 37.7961 107.354 37.7961C109.396 37.7961 110.865 36.7449 110.865 35.3015C110.865 34.0484 109.979 33.2982 107.881 32.784L105.783 32.28C102.811 31.564 101.43 30.1776 101.43 27.928C101.43 25.1427 103.865 23.2295 107.32 23.2295C110.742 23.2295 113.087 25.1427 113.166 27.928H110.72C110.574 26.317 109.238 25.3445 107.287 25.3445C105.335 25.3445 104 26.3284 104 27.7605C104 28.9018 104.853 29.5733 106.939 30.0875L108.723 30.5242C112.044 31.3075 113.423 32.638 113.423 34.9993C113.423 38.0195 111.012 39.9111 107.175 39.9111C103.584 39.9111 101.161 38.0639 101.004 35.144L103.484 35.1441Z" fill="white"/>
<path d="M118.654 25.0879V27.8732H120.899V29.7864H118.654V36.275C118.654 37.283 119.104 37.7527 120.09 37.7527C120.357 37.7481 120.623 37.7294 120.887 37.6968V39.5986C120.444 39.6812 119.993 39.7187 119.542 39.7103C117.152 39.7103 116.22 38.8153 116.22 36.5327V29.7864H114.504V27.8732H116.22V25.0879H118.654Z" fill="white"/>
<path d="M122.198 33.7588C122.198 30.0556 124.385 27.7285 127.795 27.7285C131.217 27.7285 133.394 30.0555 133.394 33.7588C133.394 37.4722 131.229 39.7891 127.795 39.7891C124.363 39.7891 122.198 37.4722 122.198 33.7588ZM130.926 33.7588C130.926 31.2185 129.758 29.7191 127.795 29.7191C125.832 29.7191 124.665 31.2299 124.665 33.7588C124.665 36.3093 125.832 37.7972 127.795 37.7972C129.758 37.7972 130.926 36.3093 130.926 33.7588H130.926Z" fill="white"/>
<path d="M135.392 27.8742H137.703V29.8775H137.759C137.915 29.2519 138.282 28.6989 138.799 28.3117C139.317 27.9244 139.951 27.7265 140.598 27.7511C140.877 27.7501 141.155 27.7803 141.428 27.8412V30.101C141.075 29.9936 140.707 29.9443 140.339 29.955C139.987 29.9407 139.636 30.0026 139.311 30.1364C138.985 30.2701 138.692 30.4726 138.452 30.7298C138.212 30.9871 138.031 31.2931 137.921 31.6267C137.811 31.9604 137.775 32.3139 137.815 32.6629V39.644H135.392L135.392 27.8742Z" fill="white"/>
<path d="M152.598 36.1861C152.272 38.3227 150.185 39.7891 147.515 39.7891C144.082 39.7891 141.951 37.495 141.951 33.8146C141.951 30.1229 144.093 27.7285 147.414 27.7285C150.679 27.7285 152.733 29.9654 152.733 33.5341V34.3618H144.396V34.5078C144.358 34.941 144.412 35.3773 144.556 35.7879C144.699 36.1985 144.929 36.5739 145.229 36.8893C145.53 37.2046 145.894 37.4526 146.298 37.6167C146.701 37.7809 147.136 37.8576 147.571 37.8416C148.144 37.8951 148.718 37.7629 149.21 37.4646C149.701 37.1663 150.082 36.7179 150.297 36.1861L152.598 36.1861ZM144.408 32.6733H150.309C150.33 32.2839 150.271 31.8941 150.135 31.5285C149.998 31.163 149.787 30.8295 149.516 30.549C149.244 30.2685 148.917 30.047 148.555 29.8986C148.193 29.7501 147.805 29.6778 147.414 29.6861C147.019 29.6838 146.628 29.7594 146.263 29.9085C145.898 30.0577 145.566 30.2775 145.286 30.5552C145.007 30.8329 144.786 31.1631 144.635 31.5266C144.484 31.8902 144.407 32.2799 144.408 32.6733V32.6733Z" fill="white"/>
<path d="M59.3122 11.3477C59.8201 11.3113 60.3298 11.3878 60.8044 11.5717C61.2791 11.7556 61.7069 12.0422 62.0571 12.4109C62.4072 12.7796 62.6709 13.2212 62.8292 13.7039C62.9875 14.1865 63.0364 14.6982 62.9723 15.202C62.9723 17.6801 61.6292 19.1046 59.3122 19.1046H56.5024V11.3477H59.3122ZM57.7106 18.0076H59.1772C59.5402 18.0292 59.9034 17.9699 60.2404 17.8339C60.5775 17.6979 60.8798 17.4886 61.1256 17.2214C61.3713 16.9542 61.5542 16.6356 61.6609 16.289C61.7676 15.9424 61.7955 15.5765 61.7425 15.2178C61.7916 14.8605 61.7609 14.4968 61.6526 14.1527C61.5442 13.8087 61.3609 13.4928 61.1157 13.2276C60.8706 12.9625 60.5696 12.7548 60.2345 12.6193C59.8993 12.4838 59.5383 12.4239 59.1772 12.4438H57.7106V18.0076Z" fill="white"/>
<path d="M64.3371 16.1789C64.3002 15.7942 64.3443 15.4061 64.4666 15.0394C64.589 14.6727 64.7868 14.3355 65.0475 14.0496C65.3081 13.7636 65.6258 13.5351 65.9802 13.3787C66.3346 13.2224 66.7179 13.1416 67.1054 13.1416C67.493 13.1416 67.8762 13.2224 68.2306 13.3787C68.585 13.5351 68.9027 13.7636 69.1634 14.0496C69.424 14.3355 69.6219 14.6727 69.7442 15.0394C69.8665 15.4061 69.9107 15.7942 69.8738 16.1789C69.9114 16.564 69.8678 16.9527 69.7458 17.3199C69.6237 17.6872 69.426 18.025 69.1653 18.3115C68.9046 18.5981 68.5866 18.827 68.2319 18.9837C67.8771 19.1404 67.4934 19.2214 67.1054 19.2214C66.7174 19.2214 66.3337 19.1404 65.979 18.9837C65.6242 18.827 65.3063 18.5981 65.0455 18.3115C64.7848 18.025 64.5871 17.6872 64.4651 17.3199C64.3431 16.9527 64.2995 16.564 64.3371 16.1789ZM68.6821 16.1789C68.6821 14.91 68.1105 14.168 67.1073 14.168C66.1003 14.168 65.5338 14.91 65.5338 16.1789C65.5338 17.458 66.1003 18.1943 67.1073 18.1943C68.1105 18.1943 68.6822 17.4529 68.6822 16.1789H68.6821Z" fill="white"/>
<path d="M77.2333 19.1067H76.0315L74.8182 14.7954H74.7266L73.5184 19.1067H72.3281L70.71 13.2529H71.885L72.9366 17.7197H73.0232L74.2301 13.2529H75.3415L76.5484 17.7197H76.64L77.6865 13.2529H78.845L77.2333 19.1067Z" fill="white"/>
<path d="M80.2061 13.2545H81.3213V14.1844H81.4079C81.5547 13.8504 81.8024 13.5704 82.1164 13.3835C82.4304 13.1966 82.7951 13.112 83.1596 13.1415C83.4453 13.1201 83.7321 13.163 83.9988 13.2672C84.2655 13.3713 84.5053 13.5339 84.7005 13.743C84.8956 13.9521 85.0411 14.2023 85.1261 14.4751C85.2111 14.7478 85.2334 15.0362 85.1915 15.3187V19.1082H84.033V15.6089C84.033 14.6681 83.6231 14.2003 82.7663 14.2003C82.5723 14.1913 82.3787 14.2242 82.1988 14.2968C82.0188 14.3694 81.8567 14.4799 81.7235 14.6208C81.5904 14.7617 81.4894 14.9296 81.4274 15.1131C81.3655 15.2966 81.344 15.4912 81.3646 15.6837V19.1083H80.2061L80.2061 13.2545Z" fill="white"/>
<path d="M87.0376 10.9678H88.1961V19.1067H87.0376V10.9678Z" fill="white"/>
<path d="M89.8068 16.179C89.7699 15.7943 89.814 15.4061 89.9364 15.0394C90.0588 14.6727 90.2566 14.3356 90.5173 14.0496C90.778 13.7636 91.0957 13.5351 91.4502 13.3787C91.8046 13.2224 92.1879 13.1416 92.5754 13.1416C92.963 13.1416 93.3463 13.2224 93.7007 13.3787C94.0551 13.5351 94.3728 13.7636 94.6335 14.0496C94.8942 14.3356 95.0921 14.6727 95.2144 15.0394C95.3368 15.4061 95.381 15.7943 95.3441 16.179C95.3816 16.5641 95.338 16.9528 95.216 17.3201C95.0939 17.6873 94.8961 18.0251 94.6354 18.3116C94.3747 18.5982 94.0567 18.8271 93.7019 18.9838C93.3471 19.1405 92.9634 19.2215 92.5754 19.2215C92.1874 19.2215 91.8037 19.1405 91.4489 18.9838C91.0942 18.8271 90.7762 18.5982 90.5154 18.3116C90.2547 18.0251 90.057 17.6873 89.9349 17.3201C89.8129 16.9528 89.7692 16.5641 89.8068 16.179ZM94.1518 16.179C94.1518 14.9101 93.5802 14.1681 92.577 14.1681C91.57 14.1681 91.0035 14.9101 91.0035 16.179C91.0035 17.4581 91.57 18.1944 92.577 18.1944C93.5802 18.1944 94.1518 17.453 94.1518 16.179H94.1518Z" fill="white"/>
<path d="M96.5635 17.4529C96.5635 16.3992 97.3503 15.7917 98.7468 15.7054L100.337 15.614V15.1087C100.337 14.4905 99.927 14.1414 99.1351 14.1414C98.4884 14.1414 98.0403 14.3781 97.9117 14.792H96.7901C96.9085 13.7865 97.8569 13.1416 99.1886 13.1416C100.66 13.1416 101.49 13.8722 101.49 15.1087V19.1084H100.375V18.2857H100.283C100.097 18.5808 99.8362 18.8214 99.5264 18.9829C99.2166 19.1443 98.8694 19.2209 98.5202 19.2048C98.2738 19.2304 98.0247 19.2042 97.7891 19.1279C97.5534 19.0516 97.3364 18.9269 97.1521 18.7618C96.9677 18.5967 96.8201 18.395 96.7187 18.1696C96.6173 17.9441 96.5644 17.7 96.5635 17.4529ZM100.337 16.9527V16.4633L98.9034 16.5547C98.095 16.6087 97.7283 16.8829 97.7283 17.399C97.7283 17.9258 98.1867 18.2324 98.8169 18.2324C99.0016 18.251 99.1881 18.2324 99.3654 18.1777C99.5427 18.123 99.7071 18.0333 99.849 17.9139C99.9908 17.7945 100.107 17.6479 100.191 17.4828C100.275 17.3176 100.324 17.1374 100.337 16.9527Z" fill="white"/>
<path d="M103.013 16.1773C103.013 14.3276 103.966 13.1558 105.45 13.1558C105.817 13.139 106.181 13.2266 106.499 13.4085C106.818 13.5903 107.078 13.8589 107.25 14.1828H107.336V10.9678H108.495V19.1067H107.385V18.1819H107.293C107.108 18.5036 106.839 18.7689 106.514 18.9489C106.189 19.1289 105.821 19.2169 105.45 19.2032C103.956 19.2033 103.013 18.0315 103.013 16.1773ZM104.21 16.1773C104.21 17.4189 104.797 18.166 105.778 18.166C106.755 18.166 107.358 17.4081 107.358 16.1824C107.358 14.9624 106.748 14.1937 105.778 14.1937C104.803 14.1937 104.21 14.9459 104.21 16.1773H104.21Z" fill="white"/>
<path d="M113.288 16.1789C113.251 15.7942 113.295 15.4061 113.418 15.0394C113.54 14.6727 113.738 14.3355 113.999 14.0496C114.259 13.7636 114.577 13.5351 114.931 13.3787C115.286 13.2224 115.669 13.1416 116.057 13.1416C116.444 13.1416 116.827 13.2224 117.182 13.3787C117.536 13.5351 117.854 13.7636 118.115 14.0496C118.375 14.3355 118.573 14.6727 118.695 15.0394C118.818 15.4061 118.862 15.7942 118.825 16.1789C118.863 16.564 118.819 16.9527 118.697 17.3199C118.575 17.6872 118.377 18.025 118.116 18.3115C117.856 18.5981 117.538 18.827 117.183 18.9837C116.828 19.1404 116.445 19.2214 116.057 19.2214C115.669 19.2214 115.285 19.1404 114.93 18.9837C114.575 18.827 114.257 18.5981 113.997 18.3115C113.736 18.025 113.538 17.6872 113.416 17.3199C113.294 16.9527 113.251 16.564 113.288 16.1789ZM117.633 16.1789C117.633 14.91 117.062 14.168 116.058 14.168C115.051 14.168 114.485 14.91 114.485 16.1789C114.485 17.458 115.052 18.1943 116.058 18.1943C117.062 18.1943 117.633 17.4529 117.633 16.1789Z" fill="white"/>
<path d="M120.379 13.2545H121.494V14.1844H121.581C121.728 13.8504 121.976 13.5704 122.29 13.3835C122.604 13.1966 122.968 13.112 123.333 13.1415C123.618 13.1201 123.905 13.163 124.172 13.2672C124.439 13.3713 124.678 13.5339 124.874 13.743C125.069 13.9521 125.214 14.2023 125.299 14.4751C125.384 14.7478 125.407 15.0362 125.365 15.3187V19.1082H124.206V15.6089C124.206 14.6681 123.796 14.2003 122.939 14.2003C122.745 14.1913 122.552 14.2242 122.372 14.2968C122.192 14.3694 122.03 14.4799 121.897 14.6208C121.763 14.7617 121.662 14.9296 121.601 15.1131C121.539 15.2966 121.517 15.4912 121.538 15.6837V19.1083H120.379V13.2545Z" fill="white"/>
<path d="M131.911 11.7959V13.28H133.183V14.2531H131.911V17.2631C131.911 17.8763 132.165 18.1448 132.741 18.1448C132.889 18.1444 133.036 18.1355 133.183 18.1182V19.0805C132.975 19.1176 132.764 19.1373 132.553 19.1395C131.265 19.1395 130.751 18.6875 130.751 17.5589V14.253H129.82V13.2799H130.751V11.7959H131.911Z" fill="white"/>
<path d="M134.765 10.9678H135.913V14.1937H136.005C136.159 13.8565 136.414 13.575 136.734 13.3873C137.054 13.1997 137.425 13.1151 137.795 13.145C138.079 13.1296 138.363 13.1769 138.627 13.2836C138.891 13.3902 139.127 13.5536 139.321 13.762C139.514 13.9705 139.658 14.2188 139.744 14.4894C139.83 14.76 139.855 15.0461 139.817 15.3273V19.1067H138.657V15.6123C138.657 14.6773 138.22 14.2038 137.402 14.2038C137.203 14.1875 137.002 14.2148 136.815 14.2838C136.627 14.3528 136.457 14.4617 136.317 14.6031C136.176 14.7444 136.068 14.9148 136 15.1021C135.932 15.2895 135.906 15.4894 135.924 15.6879V19.1067H134.765L134.765 10.9678Z" fill="white"/>
<path d="M146.572 17.5279C146.414 18.0629 146.073 18.5257 145.608 18.8353C145.143 19.1449 144.584 19.2816 144.028 19.2215C143.641 19.2317 143.257 19.1578 142.902 19.005C142.547 18.8522 142.229 18.6242 141.971 18.3367C141.713 18.0492 141.521 17.7092 141.408 17.3402C141.295 16.9712 141.264 16.5822 141.317 16.2C141.265 15.8166 141.297 15.4267 141.409 15.0567C141.522 14.6866 141.713 14.345 141.97 14.055C142.227 13.765 142.543 13.5334 142.897 13.3758C143.251 13.2182 143.635 13.1384 144.023 13.1417C145.657 13.1417 146.642 14.2545 146.642 16.0927V16.4958H142.497V16.5606C142.479 16.7754 142.506 16.9916 142.576 17.1954C142.647 17.3992 142.759 17.586 142.906 17.7439C143.054 17.9018 143.232 18.0272 143.431 18.1123C143.63 18.1973 143.844 18.24 144.06 18.2376C144.337 18.2707 144.618 18.221 144.867 18.0946C145.115 17.9682 145.321 17.771 145.457 17.5279L146.572 17.5279ZM142.497 15.6414H145.462C145.476 15.4449 145.45 15.2476 145.383 15.0621C145.317 14.8765 145.212 14.7069 145.076 14.5641C144.94 14.4213 144.775 14.3084 144.593 14.2328C144.411 14.1572 144.214 14.1204 144.017 14.125C143.816 14.1224 143.618 14.16 143.432 14.2353C143.246 14.3106 143.078 14.4222 142.936 14.5636C142.794 14.7049 142.683 14.8731 142.607 15.0582C142.532 15.2433 142.494 15.4416 142.497 15.6414H142.497Z" fill="white"/>
</svg>
