<svg width="176" height="52" viewBox="0 0 176 52" fill="none" xmlns="http://www.w3.org/2000/svg">
<rect x="0.5" width="175.5" height="52" rx="10.4" fill="white" fill-opacity="0.15"/>
<path d="M61.7461 13.3098C61.7674 13.7866 61.692 14.2627 61.5245 14.7095C61.3569 15.1564 61.1006 15.5647 60.7711 15.9098C60.4018 16.2911 59.9561 16.5901 59.4632 16.7873C58.9704 16.9844 58.4415 17.0752 57.9111 17.0538C57.3776 17.0657 56.8474 16.968 56.3532 16.7668C55.8591 16.5655 55.4114 16.265 55.0381 15.8838C54.2806 15.109 53.8564 14.0684 53.8564 12.9848C53.8564 11.9012 54.2806 10.8607 55.0381 10.0858C55.6172 9.51992 56.3507 9.13779 57.1464 8.98745C57.942 8.8371 58.7644 8.92526 59.5101 9.24083C59.9789 9.43353 60.397 9.73156 60.7321 10.1118L60.0431 10.8008C59.7849 10.4898 59.4578 10.2433 59.0877 10.0808C58.7176 9.91835 58.3147 9.84439 57.9111 9.86483C57.4015 9.86835 56.9006 9.99664 56.452 10.2385C56.0035 10.4803 55.621 10.8283 55.338 11.2521C55.055 11.6759 54.8801 12.1625 54.8286 12.6695C54.7771 13.1765 54.8506 13.6883 55.0426 14.1604C55.2346 14.6324 55.5393 15.0502 55.9301 15.3773C56.3209 15.7043 56.7858 15.9307 57.2842 16.0366C57.7827 16.1425 58.2995 16.1247 58.7895 15.9848C59.2795 15.8448 59.7277 15.587 60.0951 15.2338C60.4922 14.7985 60.7224 14.2366 60.7451 13.6478H57.9111V12.7118H61.6941C61.7237 12.9099 61.741 13.1096 61.7461 13.3098Z" fill="white" stroke="white" stroke-width="0.26" stroke-miterlimit="10"/>
<path d="M67.7 10.0606H64.19V12.5306H67.388V13.4666H64.19V15.9366H67.7V16.8986H63.176V9.09863H67.7V10.0606Z" fill="white" stroke="white" stroke-width="0.26" stroke-miterlimit="10"/>
<path d="M71.9643 16.8986H70.9633V10.0606H68.7793V9.09863H74.2003V10.0606H71.9643V16.8986Z" fill="white" stroke="white" stroke-width="0.26" stroke-miterlimit="10"/>
<path d="M78.022 16.8986V9.09863H79.023V16.8986H78.022Z" fill="white" stroke="white" stroke-width="0.26" stroke-miterlimit="10"/>
<path d="M83.4689 16.8986H82.4679V10.0606H80.2839V9.09863H85.6399V10.0606H83.4689V16.8986Z" fill="white" stroke="white" stroke-width="0.26" stroke-miterlimit="10"/>
<path d="M95.7933 15.8821C95.4178 16.2579 94.972 16.556 94.4813 16.7593C93.9905 16.9627 93.4645 17.0674 92.9333 17.0674C92.4021 17.0674 91.8761 16.9627 91.3854 16.7593C90.8946 16.556 90.4488 16.2579 90.0733 15.8821C89.3384 15.1008 88.9292 14.0687 88.9292 12.9961C88.9292 11.9235 89.3384 10.8913 90.0733 10.1101C90.4407 9.72372 90.8851 9.41879 91.3777 9.21501C91.8704 9.01122 92.4004 8.91314 92.9333 8.92709C93.4655 8.91867 93.9938 9.01928 94.4857 9.22273C94.9775 9.42618 95.4226 9.72817 95.7933 10.1101C96.1671 10.4903 96.4609 10.9416 96.6574 11.4373C96.8539 11.933 96.9491 12.463 96.9373 12.9961C96.9544 13.5298 96.8616 14.0614 96.6648 14.5578C96.4681 15.0543 96.1714 15.505 95.7933 15.8821ZM90.8143 15.2321C91.0912 15.5127 91.4212 15.7356 91.7849 15.8877C92.1487 16.0397 92.539 16.1181 92.9333 16.1181C93.3276 16.1181 93.7179 16.0397 94.0817 15.8877C94.4455 15.7356 94.7754 15.5127 95.0523 15.2321C95.6132 14.6225 95.9246 13.8244 95.9246 12.9961C95.9246 12.1677 95.6132 11.3696 95.0523 10.7601C94.7754 10.4794 94.4455 10.2566 94.0817 10.1045C93.7179 9.95242 93.3276 9.87411 92.9333 9.87411C92.539 9.87411 92.1487 9.95242 91.7849 10.1045C91.4212 10.2566 91.0912 10.4794 90.8143 10.7601C90.2534 11.3696 89.942 12.1677 89.942 12.9961C89.942 13.8244 90.2534 14.6225 90.8143 15.2321Z" fill="white" stroke="white" stroke-width="0.26" stroke-miterlimit="10"/>
<path d="M98.3542 16.8986V9.09863H99.5632L103.359 15.1696V13.6616V9.09863H104.36V16.8986H103.32L99.3552 10.5416V12.0366V16.8986H98.3542Z" fill="white" stroke="white" stroke-width="0.26" stroke-miterlimit="10"/>
<path d="M88.6823 28.2708C87.587 28.2734 86.517 28.6007 85.6077 29.2113C84.6984 29.822 83.9907 30.6886 83.5739 31.7015C83.1571 32.7144 83.0501 33.8282 83.2663 34.9019C83.4825 35.9757 84.0122 36.9612 84.7885 37.7339C85.5649 38.5066 86.5529 39.0317 87.6276 39.2429C88.7024 39.4541 89.8156 39.3418 90.8266 38.9202C91.8375 38.4987 92.7008 37.7869 93.3072 36.8747C93.9136 35.9626 94.2359 34.8911 94.2333 33.7958C94.2439 33.0651 94.1073 32.3398 93.8318 31.6629C93.5563 30.9861 93.1473 30.3717 92.6294 29.8562C92.1115 29.3406 91.4951 28.9346 90.817 28.6623C90.1389 28.3899 89.4129 28.2568 88.6823 28.2708ZM88.6823 37.1498C88.0109 37.1968 87.341 37.0407 86.7595 36.7018C86.1781 36.3629 85.712 35.857 85.4219 35.2498C85.1318 34.6425 85.0311 33.962 85.1329 33.2968C85.2346 32.6315 85.5342 32.0123 85.9925 31.5195C86.4509 31.0268 87.0469 30.6833 87.7031 30.5338C88.3592 30.3843 89.0452 30.4356 89.6718 30.6811C90.2984 30.9266 90.8367 31.3549 91.2166 31.9104C91.5966 32.4659 91.8006 33.1228 91.8023 33.7958C91.8232 34.2222 91.7586 34.6485 91.6121 35.0495C91.4657 35.4506 91.2404 35.8182 90.9497 36.1308C90.6589 36.4434 90.3084 36.6946 89.919 36.8696C89.5296 37.0446 89.1091 37.1399 88.6823 37.1498ZM76.5663 28.2708C75.471 28.2734 74.401 28.6007 73.4917 29.2113C72.5824 29.822 71.8747 30.6886 71.4579 31.7015C71.0411 32.7144 70.9341 33.8282 71.1503 34.9019C71.3665 35.9757 71.8962 36.9612 72.6725 37.7339C73.4489 38.5066 74.4369 39.0317 75.5116 39.2429C76.5864 39.4541 77.6996 39.3418 78.7106 38.9202C79.7215 38.4987 80.5848 37.7869 81.1912 36.8747C81.7976 35.9626 82.1198 34.8911 82.1173 33.7958C82.1279 33.0651 81.9913 32.3398 81.7158 31.6629C81.4403 30.9861 81.0313 30.3717 80.5134 29.8562C79.9955 29.3406 79.3791 28.9346 78.701 28.6623C78.0229 28.3899 77.2969 28.2568 76.5663 28.2708ZM76.5663 37.1498C75.8949 37.1968 75.225 37.0407 74.6435 36.7018C74.0621 36.3629 73.596 35.857 73.3059 35.2498C73.0158 34.6425 72.9151 33.962 73.0169 33.2968C73.1186 32.6315 73.4182 32.0123 73.8765 31.5195C74.3349 31.0268 74.9309 30.6833 75.5871 30.5338C76.2432 30.3843 76.9292 30.4356 77.5558 30.6811C78.1824 30.9266 78.7207 31.3549 79.1006 31.9104C79.4806 32.4659 79.6846 33.1228 79.6863 33.7958C79.7072 34.2222 79.6426 34.6485 79.4961 35.0495C79.3497 35.4506 79.1244 35.8182 78.8337 36.1308C78.5429 36.4434 78.1924 36.6946 77.803 36.8696C77.4136 37.0446 76.9931 37.1399 76.5663 37.1498ZM62.1623 29.9738V32.3138H67.7783C67.6902 33.4159 67.2321 34.4559 66.4783 35.2648C65.9149 35.8388 65.2374 36.2881 64.4894 36.5837C63.7415 36.8793 62.9398 37.0146 62.1363 36.9808C60.4813 36.9808 58.8942 36.3234 57.7239 35.1531C56.5537 33.9829 55.8963 32.3958 55.8963 30.7408C55.8963 29.0858 56.5537 27.4987 57.7239 26.3285C58.8942 25.1582 60.4813 24.5008 62.1363 24.5008C63.7229 24.4772 65.2548 25.0797 66.4003 26.1778L68.0513 24.5268C67.2765 23.7605 66.3565 23.1565 65.3453 22.7502C64.3341 22.3439 63.2519 22.1435 62.1623 22.1608C61.0066 22.1158 59.8537 22.3046 58.7727 22.7159C57.6917 23.1271 56.7048 23.7523 55.8713 24.5541C55.0377 25.3559 54.3745 26.3177 53.9216 27.3819C53.4686 28.446 53.2351 29.5907 53.2351 30.7473C53.2351 31.9039 53.4686 33.0486 53.9216 34.1127C54.3745 35.1769 55.0377 36.1387 55.8713 36.9405C56.7048 37.7423 57.6917 38.3675 58.7727 38.7787C59.8537 39.19 61.0066 39.3788 62.1623 39.3338C63.2743 39.3782 64.3832 39.1869 65.4161 38.7724C66.4489 38.3579 67.3824 37.7296 68.1553 36.9288C69.5204 35.4291 70.2478 33.4567 70.1833 31.4298C70.1879 30.9419 70.1488 30.4547 70.0663 29.9738H62.1623ZM121.065 31.7938C120.726 30.7964 120.092 29.9254 119.247 29.2963C118.402 28.6672 117.386 28.3096 116.333 28.2708C115.622 28.2694 114.918 28.4139 114.265 28.6953C113.612 28.9767 113.024 29.3891 112.536 29.9069C112.049 30.4247 111.673 31.037 111.432 31.7059C111.19 32.3748 111.089 33.0861 111.133 33.7958C111.122 34.9825 111.495 36.141 112.197 37.0981C112.898 38.0553 113.891 38.7598 115.026 39.1065C116.161 39.4531 117.378 39.4233 118.494 39.0214C119.611 38.6195 120.567 37.8672 121.221 36.8768L119.336 35.5768C119.055 36.0452 118.657 36.4319 118.18 36.6987C117.704 36.9655 117.165 37.1031 116.619 37.0978C116.056 37.1211 115.499 36.9733 115.021 36.674C114.543 36.3747 114.166 35.9379 113.941 35.4208L121.338 32.3658L121.065 31.7938ZM113.525 33.6398C113.499 33.236 113.553 32.831 113.686 32.4485C113.818 32.066 114.025 31.7137 114.295 31.4123C114.565 31.1108 114.892 30.8663 115.258 30.6929C115.623 30.5196 116.02 30.421 116.424 30.4028C116.843 30.3772 117.26 30.4758 117.623 30.6863C117.986 30.8967 118.279 31.2096 118.465 31.5858L113.525 33.6398ZM107.519 38.9958H109.95V22.7458H107.519V38.9958ZM103.541 29.5058H103.45C103.087 29.0922 102.639 28.7619 102.136 28.5376C101.634 28.3132 101.089 28.2 100.538 28.2058C99.1176 28.2747 97.7779 28.8875 96.7968 29.9174C95.8158 30.9472 95.2685 32.315 95.2685 33.7373C95.2685 35.1596 95.8158 36.5274 96.7968 37.5572C97.7779 38.587 99.1176 39.1999 100.538 39.2688C101.089 39.2799 101.636 39.1691 102.14 38.9443C102.643 38.7196 103.091 38.3865 103.45 37.9688H103.541V38.7618C103.541 40.8808 102.41 42.0118 100.59 42.0118C99.9823 41.9984 99.392 41.8047 98.8944 41.4552C98.3967 41.1057 98.0142 40.6162 97.7953 40.0488L95.6893 40.9198C96.0786 41.8977 96.7556 42.7345 97.6307 43.3194C98.5058 43.9043 99.5378 44.2099 100.59 44.1958C103.437 44.1958 105.79 42.5188 105.79 38.4368V28.5958H103.541V29.5058ZM100.746 37.1498C99.8945 37.0967 99.095 36.7209 98.5107 36.099C97.9263 35.477 97.601 34.6557 97.601 33.8023C97.601 32.9489 97.9263 32.1276 98.5107 31.5056C99.095 30.8837 99.8945 30.5079 100.746 30.4548C101.163 30.4728 101.571 30.5743 101.947 30.7533C102.324 30.9324 102.66 31.1853 102.937 31.497C103.213 31.8087 103.424 32.1728 103.557 32.5678C103.69 32.9627 103.742 33.3803 103.71 33.7958C103.746 34.2127 103.696 34.6325 103.565 35.0297C103.434 35.4269 103.223 35.7934 102.946 36.1069C102.669 36.4204 102.331 36.6745 101.953 36.8538C101.575 37.033 101.164 37.1337 100.746 37.1498ZM132.453 22.7458H126.629V38.9958H129.06V32.8338H132.453C133.146 32.8836 133.842 32.7901 134.497 32.5591C135.152 32.3282 135.753 31.9648 136.261 31.4915C136.769 31.0183 137.175 30.4454 137.452 29.8085C137.73 29.1716 137.873 28.4844 137.873 27.7898C137.873 27.0952 137.73 26.408 137.452 25.7711C137.175 25.1342 136.769 24.5613 136.261 24.0881C135.753 23.6148 135.152 23.2514 134.497 23.0205C133.842 22.7895 133.146 22.696 132.453 22.7458ZM132.453 30.5458H129.06V25.0078H132.505C132.871 25.0078 133.232 25.0798 133.57 25.2196C133.907 25.3594 134.214 25.5643 134.472 25.8226C134.731 26.081 134.936 26.3876 135.076 26.7252C135.215 27.0627 135.287 27.4245 135.287 27.7898C135.287 28.1551 135.215 28.5169 135.076 28.8544C134.936 29.192 134.731 29.4986 134.472 29.757C134.214 30.0153 133.907 30.2202 133.57 30.36C133.232 30.4998 132.871 30.5718 132.505 30.5718L132.453 30.5458ZM147.455 28.2188C146.57 28.1642 145.688 28.3703 144.919 28.8116C144.149 29.2529 143.526 29.9101 143.126 30.7018L145.271 31.5988C145.488 31.208 145.813 30.8884 146.208 30.6784C146.602 30.4685 147.049 30.3773 147.494 30.4158C147.803 30.3798 148.116 30.4055 148.414 30.4916C148.713 30.5777 148.991 30.7224 149.233 30.9172C149.475 31.1121 149.676 31.3531 149.824 31.6264C149.972 31.8996 150.064 32.1996 150.094 32.5088V32.6648C149.313 32.2539 148.442 32.0397 147.559 32.0408C145.245 32.0408 142.879 33.3408 142.879 35.7068C142.902 36.2097 143.026 36.7029 143.243 37.157C143.46 37.6112 143.767 38.017 144.144 38.3505C144.521 38.684 144.961 38.9382 145.438 39.0982C145.916 39.2582 146.42 39.3206 146.922 39.2818C147.532 39.3155 148.14 39.1864 148.684 38.9077C149.228 38.629 149.688 38.2108 150.016 37.6958H150.094V38.9958H152.434V32.7428C152.434 29.8958 150.276 28.2448 147.507 28.2448L147.455 28.2188ZM147.156 37.1238C146.363 37.1238 145.258 36.7208 145.258 35.7458C145.258 34.4458 146.636 34.0038 147.858 34.0038C148.631 33.9847 149.394 34.1733 150.068 34.5498C149.987 35.2558 149.652 35.9083 149.126 36.3863C148.6 36.8644 147.919 37.1356 147.208 37.1498L147.156 37.1238ZM160.962 28.5958L158.18 35.6418H158.102L155.216 28.5958H152.616L156.945 38.4498L154.475 43.9228H157.01L163.666 28.5958H160.962ZM139.122 38.9958H141.54V22.7458H139.122V38.9958Z" fill="white"/>
<path d="M13.6723 9.79901C13.2439 10.3055 13.0253 10.9566 13.0613 11.619V40.375C13.017 41.0385 13.2366 41.6926 13.6723 42.195L13.7633 42.299L29.8703 26.192V25.802L13.7633 9.70801L13.6723 9.79901Z" fill="url(#paint0_linear_2332_326)"/>
<path d="M35.2004 31.5616L29.8704 26.1926V25.8026L35.2004 20.4336L35.3174 20.5116L41.7004 24.1256C43.5204 25.1526 43.5204 26.8426 41.7004 27.8826L35.3434 31.4966L35.2004 31.5616Z" fill="url(#paint1_linear_2332_326)"/>
<path d="M35.3561 31.485L29.8701 25.999L13.6721 42.197C14.0395 42.524 14.5097 42.7121 15.0012 42.7287C15.4927 42.7454 15.9745 42.5894 16.3631 42.288L35.3561 31.485Z" fill="url(#paint2_linear_2332_326)"/>
<path d="M35.3561 20.5134L16.3631 9.72342C15.9771 9.41781 15.4956 9.2581 15.0034 9.27236C14.5112 9.28663 14.0398 9.47396 13.6721 9.80142L29.8701 25.9994L35.3561 20.5134Z" fill="url(#paint3_linear_2332_326)"/>
<path opacity="0.2" d="M35.2001 31.3662L16.3631 42.0912C15.9886 42.3738 15.5323 42.5267 15.0631 42.5267C14.594 42.5267 14.1376 42.3738 13.7631 42.0912L13.6721 42.1822L13.7631 42.2862C14.1376 42.5688 14.594 42.7217 15.0631 42.7217C15.5323 42.7217 15.9886 42.5688 16.3631 42.2862L35.3561 31.4832L35.2001 31.3662Z" fill="white"/>
<path opacity="0.12" d="M13.6722 42.0146C13.2547 41.499 13.05 40.8432 13.1002 40.1816V40.3766C13.056 41.0401 13.2756 41.6942 13.7112 42.1966L13.8022 42.1056L13.6722 42.0146Z" fill="white"/>
<path opacity="0.12" d="M41.7002 27.689L35.2002 31.368L35.3172 31.485L41.7002 27.871C42.077 27.7117 42.4038 27.4537 42.6463 27.1243C42.8888 26.7949 43.038 26.4061 43.0782 25.999C42.9969 26.369 42.8299 26.7146 42.5905 27.0082C42.3512 27.3017 42.0462 27.5349 41.7002 27.689Z" fill="white"/>
<path opacity="0.25" d="M16.363 9.90568L41.7 24.3097C42.046 24.4638 42.351 24.697 42.5904 24.9905C42.8297 25.2841 42.9968 25.6297 43.078 25.9997C43.0379 25.5926 42.8887 25.2038 42.6462 24.8744C42.4037 24.545 42.0768 24.287 41.7 24.1277L16.363 9.72368C14.556 8.68368 13.061 9.54168 13.061 11.6217V11.8167C13.1 9.73668 14.556 8.87868 16.363 9.90568Z" fill="white"/>
<defs>
<linearGradient id="paint0_linear_2332_326" x1="28.4403" y1="11.32" x2="6.62625" y2="33.134" gradientUnits="userSpaceOnUse">
<stop stop-color="#00A0FF"/>
<stop offset="0.01" stop-color="#00A1FF"/>
<stop offset="0.26" stop-color="#00BEFF"/>
<stop offset="0.51" stop-color="#00D2FF"/>
<stop offset="0.76" stop-color="#00DFFF"/>
<stop offset="1" stop-color="#00E3FF"/>
</linearGradient>
<linearGradient id="paint1_linear_2332_326" x1="44.0794" y1="25.9976" x2="12.6324" y2="25.9976" gradientUnits="userSpaceOnUse">
<stop stop-color="#FFE000"/>
<stop offset="0.41" stop-color="#FFBD00"/>
<stop offset="0.78" stop-color="#FFA500"/>
<stop offset="1" stop-color="#FF9C00"/>
</linearGradient>
<linearGradient id="paint2_linear_2332_326" x1="32.3791" y1="28.989" x2="2.79111" y2="58.564" gradientUnits="userSpaceOnUse">
<stop stop-color="#FF3A44"/>
<stop offset="1" stop-color="#C31162"/>
</linearGradient>
<linearGradient id="paint3_linear_2332_326" x1="9.59012" y1="0.233424" x2="22.7981" y2="13.4414" gradientUnits="userSpaceOnUse">
<stop stop-color="#32A071"/>
<stop offset="0.07" stop-color="#2DA771"/>
<stop offset="0.48" stop-color="#15CF74"/>
<stop offset="0.8" stop-color="#06E775"/>
<stop offset="1" stop-color="#00F076"/>
</linearGradient>
</defs>
</svg>
